<?xml version="1.0" encoding="utf-8"?>
<!-- Generator: Adobe Illustrator 19.2.0, SVG Export Plug-In . SVG Version: 6.00 Build 0)  -->
<svg version="1.1" id="Layer_1" xmlns="http://www.w3.org/2000/svg" xmlns:xlink="http://www.w3.org/1999/xlink" x="0px" y="0px"
	 viewBox="0 0 180.7 64" style="enable-background:new 0 0 180.7 64;" xml:space="preserve">
<style type="text/css">
	.st0{fill:url(#SVGID_1_);}
	.st1{fill:#FCE42F;}
	.st2{fill:#FFF696;}
	.st3{fill:#1C6232;}
	.st4{fill:#FBF1A2;stroke:#FBF1A2;stroke-width:0.8178;}
	.st5{fill:#98C363;}
	.st6{fill:url(#SVGID_2_);}
	.st7{fill:url(#SVGID_3_);enable-background:new    ;}
	.st8{fill:url(#SVGID_4_);}
	.st9{fill:url(#SVGID_5_);enable-background:new    ;}
	.st10{fill:url(#SVGID_6_);enable-background:new    ;}
	.st11{fill:url(#SVGID_7_);enable-background:new    ;}
	.st12{fill:url(#SVGID_8_);enable-background:new    ;}
	.st13{fill:url(#SVGID_9_);}
	.st14{fill:url(#SVGID_10_);}
	.st15{filter:url(#Adobe_OpacityMaskFilter);}
	.st16{fill:url(#SVGID_12_);}
	.st17{fill:url(#SVGID_13_);enable-background:new    ;}
	.st18{fill:url(#SVGID_14_);}
	.st19{fill:url(#SVGID_15_);enable-background:new    ;}
	.st20{fill:url(#SVGID_16_);enable-background:new    ;}
	.st21{fill:url(#SVGID_17_);enable-background:new    ;}
	.st22{fill:url(#SVGID_18_);enable-background:new    ;}
	.st23{fill:url(#SVGID_19_);}
	.st24{fill:url(#SVGID_20_);}
	.st25{mask:url(#SVGID_11_);}
	.st26{fill:#C1D446;}
	.st27{fill:#C1D446;enable-background:new    ;}
</style>
<text transform="matrix(1 0 0 1 1126.7915 1116.374)" style="fill:#007DA7; font-family:'Marlett'; font-size:36px; letter-spacing:14;">RESTAURANTE</text>
<text transform="matrix(1 0 0 1 1138.2476 688.376)" class="st3" style="font-family:'Marlett'; font-size:36px; letter-spacing:14;">RESTAURANTE</text>
<g>
	<g>
		<g>
			<radialGradient id="SVGID_1_" cx="90.3332" cy="23.9977" r="61.5771" gradientUnits="userSpaceOnUse">
				<stop  offset="0" style="stop-color:#FFF232"/>
				<stop  offset="0.6658" style="stop-color:#FBE131"/>
				<stop  offset="1" style="stop-color:#F8D930"/>
			</radialGradient>
			<path class="st0" d="M161,41.9c9.2-3.7,14.5-8.1,14.5-12.9c0-12.7-38.2-23-85.2-23c-47.1,0-85.2,10.3-85.2,23
				c0,4.8,5.4,9.2,14.5,12.9c18-1.2,43-1.9,70.7-1.9C118,40,143,40.8,161,41.9z"/>
		</g>
		<g>
			<path class="st1" d="M114.5,37.3L154.4,21l-41.9,10.2l24.8-21c-0.8-0.1-1.5-0.3-2.3-0.4L108.7,26L120,7.8
				c-1.3-0.1-2.6-0.3-3.9-0.4l-12.6,14.8l3.8-15.5c-1.4-0.1-2.8-0.1-4.3-0.2l-5.6,13.7l-1-13.9c-1.4,0-2.9,0-4.3-0.1l-1,13.9
				L85.4,6.4c-1.4,0-2.9,0.1-4.3,0.1L85,22.3L72,6.9c-1.3,0.1-2.6,0.2-3.8,0.3L79.8,26L52,8.8c-0.7,0.1-1.4,0.2-2,0.3L76,31.2
				L34.1,21l39.9,16.3l-43,3.2l9.5,0.7c14.7-0.6,31.7-0.9,49.8-0.9c20.3,0,39.2,0.4,54.9,1.1l12.2-0.9L114.5,37.3z"/>
			<path class="st2" d="M114.5,37.3L154.4,21l-41.9,10.2l24.8-21c-0.8-0.1-1.5-0.3-2.3-0.4L108.7,26L120,7.8
				c-1.3-0.1-2.6-0.3-3.9-0.4l-12.6,14.8l3.8-15.5c-1.4-0.1-2.8-0.1-4.3-0.2l-5.6,13.7l-1-13.9c-1.4,0-2.9,0-4.3-0.1l-1,13.9
				L85.4,6.4c-1.4,0-2.9,0.1-4.3,0.1L85,22.3L72,6.9c-1.3,0.1-2.6,0.2-3.8,0.3L79.8,26L52,8.8c-0.7,0.1-1.4,0.2-2,0.3L76,31.2
				L34.1,21l39.9,16.3l-43,3.2l9.5,0.7c14.7-0.6,31.7-0.9,49.8-0.9c20.3,0,39.2,0.4,54.9,1.1l12.2-0.9L114.5,37.3z"/>
		</g>
	</g>
	<g>
		<g>
			<path class="st3" d="M30.7,17c-0.2-0.5-0.7-1-1.3-1.4c-0.9-0.7-2.1-1-3.5-1c-1.9,0-3.3,1-4.3,3.1c-0.8,1.8-1.2,4.2-1.2,7.1
				c0,2.7,0.6,5,1.7,6.9c1.2,1.9,2.5,2.9,4.1,2.9c1.1,0,2.2-0.3,3.2-1c1-0.7,2.8-2,3.5-3.2c0.7,0.5,0.5,1.5,1.1,2
				c-2.1,3.2-5.2,4.8-9.2,4.8c-2.8,0-5.3-1.1-7.4-3.2c-2.3-2.3-3.4-5.3-3.4-8.9c0-3.9,1.2-7,3.5-9.4c2.2-2.2,4.8-3.3,7.8-3.3
				c3.6,0,6.3,1.1,8,3.4c0.7,0.9,1.1,1.9,1.1,2.9c0,0.9-0.3,1.7-0.9,2.4c-0.6,0.7-1.3,1-2.2,1c-0.4,0-0.8-0.1-1.2-0.2
				c-1-0.4-1.5-1.2-1.5-2.2c0-0.6,0.2-1.1,0.5-1.6C29.7,17.5,30.1,17.1,30.7,17z"/>
			<path class="st3" d="M51.4,34.5c0,0.4-0.8,0.9-2.3,1.6c-1.5,0.7-2.7,1-3.5,1c-0.5,0-0.9-0.3-1.1-0.9c-1.1,0.6-2.2,0.9-3.5,0.9
				c-2.4,0-4.4-0.7-6-2.2c-1.7-1.6-2.6-3.8-2.6-6.7c0-2.8,0.9-4.9,2.6-6.5c1.6-1.4,3.6-2.1,6-2.1c1.2,0,2.5,0.2,3.9,0.6
				c0.6-0.1,2-0.3,4.3-0.4v8c0,3.4,0.1,5.3,0.4,5.6c0.1,0.1,0.4,0.2,1,0.4C51.2,34,51.4,34.2,51.4,34.5z M43.8,28.3
				c0-4.2-0.9-6.3-2.7-6.3c-1.8,0-2.8,2.1-2.8,6.3c0,4.2,0.9,6.3,2.8,6.3C42.9,34.6,43.8,32.5,43.8,28.3z"/>
			<path class="st3" d="M65.9,22.3c0,0.9-0.3,1.6-0.8,2.1c-0.5,0.5-1.2,0.7-1.9,0.7c-0.8,0-1.5-0.5-1.9-1.4
				c-0.1-0.3-0.3-0.4-0.6-0.4c-0.9,0-1.6,0.6-2.2,1.8c-0.6,1.2-0.9,2.7-0.9,4.5v7.1h-5.7V25.9c0-1.2-0.1-2.1-0.3-2.5
				c-0.1-0.2-0.4-0.3-0.9-0.5c-0.5-0.1-0.8-0.4-0.8-0.7c0-0.5,0.9-1,2.7-1.7c1.7-0.7,2.9-0.9,3.5-0.8c0.5,0.1,0.9,0.4,1.1,0.9
				c0.1,0.1,0.2,0.5,0.3,1.2c0,0.1,0.1,0.3,0.1,0.8c0,0.3,0.1,0.4,0.2,0.4c0,0,0.3-0.3,0.7-0.9c0.5-0.7,1-1.3,1.6-1.7
				c0.8-0.6,1.7-0.9,2.6-0.9c0.9,0,1.7,0.3,2.3,0.8C65.5,20.7,65.9,21.4,65.9,22.3z"/>
			<path class="st3" d="M94.4,34.5c0,0.4-0.8,0.9-2.3,1.6c-1.5,0.7-2.7,1-3.5,1c-0.7,0-1.2-0.6-1.6-1.8c-0.3-1.1-0.5-2.4-0.5-4
				c0-0.6,0.1-1.6,0.2-2.8c0.1-1.3,0.2-2.2,0.2-2.8c0-1.9-0.6-2.8-1.7-2.8c-0.7,0-1.4,0.5-1.9,1.5c-0.6,1-0.9,2-0.9,3.2v9.2h-5.7
				V25.4c0-1.7-0.5-2.5-1.5-2.5c-0.7,0-1.4,0.5-2,1.5c-0.6,1-0.9,2.1-0.9,3.2v9.1h-5.7V25.9c0-1.3-0.1-2.1-0.2-2.4
				c-0.1-0.2-0.4-0.4-1-0.5c-0.6-0.2-0.9-0.4-0.9-0.8c0-0.5,0.9-1,2.7-1.7c1.7-0.7,2.9-0.9,3.5-0.8c0.5,0.1,0.9,0.4,1.1,0.9
				c0.1,0.1,0.2,0.5,0.3,1.1c0,0.1,0.1,0.4,0.1,0.8c0,0.3,0.1,0.4,0.2,0.4c0,0,0.3-0.3,0.7-0.9c0.6-0.7,1.1-1.3,1.7-1.7
				c0.9-0.6,1.8-0.9,2.8-0.9c2.3,0,3.8,1.2,4.5,3.5c0,0.1,0.1,0.2,0.1,0.3c1-1.3,1.7-2.2,2.3-2.7c0.9-0.7,1.9-1.1,3.1-1.1
				c1.6,0,2.9,0.7,3.7,2c0.8,1.1,1.1,2.6,1.1,4.4c0,0.6-0.1,1.4-0.2,2.5c-0.1,1.1-0.2,2-0.2,2.6c0,1.4,0.1,2.3,0.4,2.6
				c0.1,0.1,0.5,0.2,1.1,0.4C94.2,34,94.4,34.2,94.4,34.5z"/>
			<path class="st3" d="M109.9,31.9c-1.7,3.5-4.3,5.3-7.8,5.3c-2.4,0-4.5-0.7-6.1-2.2c-1.8-1.6-2.7-3.9-2.7-6.7c0-2.8,0.9-5,2.6-6.6
				c1.6-1.5,3.8-2.3,6.5-2.3c2.3,0,4.2,0.5,5.6,1.5c1.3,0.9,2,2,2,3.4c0,1-0.4,2-1.1,3c-1.5,1.9-4.7,2.7-9.6,2.6
				c0,1.4,0.2,2.5,0.8,3.2c0.6,0.8,1.6,1.2,3,1.2c1.7,0,3-1.1,3.9-3.2L109.9,31.9z M103.8,26.2c0.3-0.5,0.4-1,0.4-1.7
				c0-0.7-0.2-1.4-0.6-1.9c-0.4-0.5-0.9-0.8-1.6-0.8c-1.9,0-2.8,1.9-2.8,5.7C101.7,27.6,103.2,27.2,103.8,26.2z"/>
			<path class="st3" d="M119,34.5c0,0.4-0.8,0.9-2.3,1.6c-1.5,0.7-2.7,1-3.5,1c-0.6,0-1.1-0.6-1.5-1.8c-0.3-1.1-0.5-2.5-0.5-4.1
				V11.7l5.7-0.2v16.5c0,3.4,0.1,5.3,0.4,5.6c0.1,0.1,0.4,0.2,1,0.4C118.8,34,119,34.2,119,34.5z"/>
			<path class="st3" d="M124.8,36.7h-5.6v-11c0-1.3-0.1-2.1-0.2-2.5c-0.1-0.2-0.4-0.3-1-0.5c-0.6-0.2-0.9-0.4-0.9-0.7
				c0-0.5,0.9-1,2.6-1.7c1.8-0.7,2.9-0.9,3.5-0.8c0.5,0.1,0.9,0.4,1.1,0.9c0.1,0.1,0.2,0.5,0.3,1.1c0.1,0.4,0.1,1.7,0.2,3.9V36.7z
				 M125.1,15.1c0,0.6-0.3,1.1-0.9,1.6c-0.6,0.4-1.4,0.6-2.2,0.6c-0.9,0-1.6-0.2-2.2-0.6c-0.6-0.4-0.9-0.9-0.9-1.6
				c0-0.6,0.3-1.1,0.9-1.6c0.6-0.4,1.4-0.7,2.2-0.7c0.9,0,1.6,0.2,2.2,0.7C124.8,14,125.1,14.5,125.1,15.1z"/>
			<path class="st3" d="M136.8,19.8l-0.1,3h-3.3v5.1c0,3.5,0.1,5.3,0.4,5.6c0.1,0.1,0.4,0.2,1,0.4c0.5,0.1,0.7,0.4,0.7,0.7
				c0,0.4-0.8,0.9-2.3,1.6c-1.5,0.7-2.7,1-3.5,1c-0.6,0-1.1-0.6-1.5-1.8c-0.3-1.1-0.5-2.5-0.5-4.1v-8.4h-2.9l0.1-3
				c0.4,0,0.7-0.1,1-0.1c0.8-0.1,1.4-0.4,1.8-0.7c0.6-0.5,1.2-2.2,1.8-5.3l3.9-0.1v6.2H136.8z"/>
			<path class="st3" d="M154.4,34.5c0,0.4-0.8,0.9-2.3,1.6c-1.5,0.7-2.7,1-3.5,1c-0.5,0-0.9-0.3-1.1-0.9c-1.1,0.6-2.2,0.9-3.5,0.9
				c-2.4,0-4.4-0.7-6-2.2c-1.7-1.6-2.6-3.8-2.6-6.7c0-2.8,0.9-4.9,2.6-6.5c1.6-1.4,3.6-2.1,6-2.1c1.2,0,2.5,0.2,3.9,0.6
				c0.6-0.1,2-0.3,4.3-0.4v8c0,3.4,0.1,5.3,0.4,5.6c0.1,0.1,0.4,0.2,1,0.4C154.1,34,154.4,34.2,154.4,34.5z M146.7,28.3
				c0-4.2-0.9-6.3-2.7-6.3c-1.8,0-2.8,2.1-2.8,6.3c0,4.2,0.9,6.3,2.8,6.3C145.8,34.6,146.7,32.5,146.7,28.3z"/>
			<path class="st3" d="M161.2,37.1c-0.6,0-1.5-0.1-2.7-0.2c-1.2-0.1-2.2-0.2-2.7-0.2c-0.7,0-1.3-0.6-1.8-1.8
				c-0.4-1-0.6-1.9-0.6-2.7c0-0.8,0.2-1.2,0.6-1.2c0.2,0,0.9,0.6,1.9,1.8c1,1.2,1.9,1.8,2.7,1.8c0.5,0,0.9-0.2,1.2-0.5
				c0.3-0.3,0.5-0.7,0.5-1.2c0-0.7-0.6-1.3-1.7-2.1c-1.7-1.1-2.7-1.8-3-2.1c-1.1-1-1.6-2.3-1.6-3.7c0-1.6,0.5-2.9,1.5-4
				c1-1,2.3-1.5,3.9-1.5c0.6,0,1.2,0.1,1.9,0.3c0.7,0.2,1.1,0.3,1.3,0.3c0.3,0,0.6-0.1,0.9-0.3c0.3-0.2,0.6-0.3,0.9-0.3
				c0.4,0,0.9,0.5,1.4,1.6c0.5,1.1,0.7,2,0.7,2.9c0,0.8-0.2,1.2-0.7,1.2c-0.2,0-0.5-0.2-0.8-0.6c-0.2-0.3-0.5-0.5-0.7-0.8
				c-1.1-1.2-2-1.8-2.8-1.8c-0.5,0-0.8,0.2-1.2,0.5c-0.3,0.3-0.5,0.7-0.5,1.2c0,0.7,0.6,1.5,1.7,2.2c1.8,1.1,2.9,1.8,3.2,2.1
				c1.1,1.1,1.7,2.4,1.7,3.9c0,1.5-0.5,2.8-1.5,3.7C163.9,36.6,162.7,37.1,161.2,37.1z"/>
		</g>
		<g>
			<path class="st4" d="M30.7,16c-0.2-0.5-0.7-1-1.3-1.4c-0.9-0.7-2.1-1-3.5-1c-1.9,0-3.3,1-4.3,3.1c-0.8,1.8-1.2,4.2-1.2,7.1
				c0,2.7,0.6,5,1.7,6.9c1.2,1.9,2.5,2.9,4.1,2.9c1.1,0,2.2-0.3,3.2-1c1-0.7,2.8-2,3.5-3.2c0.7,0.5,0.5,1.5,1.1,2
				c-2.1,3.2-5.2,4.8-9.2,4.8c-2.8,0-5.3-1.1-7.4-3.2c-2.3-2.3-3.4-5.3-3.4-8.9c0-3.9,1.2-7,3.5-9.4c2.2-2.2,4.8-3.3,7.8-3.3
				c3.6,0,6.3,1.1,8,3.4c0.7,0.9,1.1,1.9,1.1,2.9c0,0.9-0.3,1.7-0.9,2.4c-0.6,0.7-1.3,1-2.2,1c-0.4,0-0.8-0.1-1.2-0.2
				c-1-0.4-1.5-1.2-1.5-2.2c0-0.6,0.2-1.1,0.5-1.6C29.7,16.4,30.1,16.1,30.7,16z"/>
			<path class="st4" d="M51.4,33.5c0,0.4-0.8,0.9-2.3,1.6c-1.5,0.7-2.7,1-3.5,1c-0.5,0-0.9-0.3-1.1-0.9c-1.1,0.6-2.2,0.9-3.5,0.9
				c-2.4,0-4.4-0.7-6-2.2c-1.7-1.6-2.6-3.8-2.6-6.7c0-2.8,0.9-4.9,2.6-6.5c1.6-1.4,3.6-2.1,6-2.1c1.2,0,2.5,0.2,3.9,0.6
				c0.6-0.1,2-0.3,4.3-0.4v8c0,3.4,0.1,5.3,0.4,5.6c0.1,0.1,0.4,0.2,1,0.4C51.2,33,51.4,33.2,51.4,33.5z M43.8,27.3
				c0-4.2-0.9-6.3-2.7-6.3c-1.8,0-2.8,2.1-2.8,6.3c0,4.2,0.9,6.3,2.8,6.3C42.9,33.6,43.8,31.5,43.8,27.3z"/>
			<path class="st4" d="M65.9,21.3c0,0.9-0.3,1.6-0.8,2.1c-0.5,0.5-1.2,0.7-1.9,0.7c-0.8,0-1.5-0.5-1.9-1.4
				c-0.1-0.3-0.3-0.4-0.6-0.4c-0.9,0-1.6,0.6-2.2,1.8c-0.6,1.2-0.9,2.7-0.9,4.5v7.1h-5.7V24.9c0-1.2-0.1-2.1-0.3-2.5
				c-0.1-0.2-0.4-0.3-0.9-0.5c-0.5-0.1-0.8-0.4-0.8-0.7c0-0.5,0.9-1,2.7-1.7c1.7-0.7,2.9-0.9,3.5-0.8c0.5,0.1,0.9,0.4,1.1,0.9
				c0.1,0.1,0.2,0.5,0.3,1.2c0,0.1,0.1,0.3,0.1,0.8c0,0.3,0.1,0.4,0.2,0.4c0,0,0.3-0.3,0.7-0.9c0.5-0.7,1-1.3,1.6-1.7
				c0.8-0.6,1.7-0.9,2.6-0.9c0.9,0,1.7,0.3,2.3,0.8C65.5,19.7,65.9,20.4,65.9,21.3z"/>
			<path class="st4" d="M94.4,33.5c0,0.4-0.8,0.9-2.3,1.6c-1.5,0.7-2.7,1-3.5,1c-0.7,0-1.2-0.6-1.6-1.8c-0.3-1.1-0.5-2.4-0.5-4
				c0-0.6,0.1-1.6,0.2-2.8c0.1-1.3,0.2-2.2,0.2-2.8c0-1.9-0.6-2.8-1.7-2.8c-0.7,0-1.4,0.5-1.9,1.5c-0.6,1-0.9,2-0.9,3.2v9.2h-5.7
				V24.4c0-1.7-0.5-2.5-1.5-2.5c-0.7,0-1.4,0.5-2,1.5c-0.6,1-0.9,2.1-0.9,3.2v9.1h-5.7V24.9c0-1.3-0.1-2.1-0.2-2.4
				c-0.1-0.2-0.4-0.4-1-0.5c-0.6-0.2-0.9-0.4-0.9-0.8c0-0.5,0.9-1,2.7-1.7c1.7-0.7,2.9-0.9,3.5-0.8c0.5,0.1,0.9,0.4,1.1,0.9
				c0.1,0.1,0.2,0.5,0.3,1.1c0,0.1,0.1,0.4,0.1,0.8c0,0.3,0.1,0.4,0.2,0.4c0,0,0.3-0.3,0.7-0.9c0.6-0.7,1.1-1.3,1.7-1.7
				c0.9-0.6,1.8-0.9,2.8-0.9c2.3,0,3.8,1.2,4.5,3.5c0,0.1,0.1,0.2,0.1,0.3c1-1.3,1.7-2.2,2.3-2.7c0.9-0.7,1.9-1.1,3.1-1.1
				c1.6,0,2.9,0.7,3.7,2c0.8,1.1,1.1,2.6,1.1,4.4c0,0.6-0.1,1.4-0.2,2.5c-0.1,1.1-0.2,2-0.2,2.6c0,1.4,0.1,2.3,0.4,2.6
				c0.1,0.1,0.5,0.2,1.1,0.4C94.2,33,94.4,33.2,94.4,33.5z"/>
			<path class="st4" d="M109.9,30.9c-1.7,3.5-4.3,5.3-7.8,5.3c-2.4,0-4.5-0.7-6.1-2.2c-1.8-1.6-2.7-3.9-2.7-6.7c0-2.8,0.9-5,2.6-6.6
				c1.6-1.5,3.8-2.3,6.5-2.3c2.3,0,4.2,0.5,5.6,1.5c1.3,0.9,2,2,2,3.4c0,1-0.4,2-1.1,3c-1.5,1.9-4.7,2.7-9.6,2.6
				c0,1.4,0.2,2.5,0.8,3.2c0.6,0.8,1.6,1.2,3,1.2c1.7,0,3-1.1,3.9-3.2L109.9,30.9z M103.8,25.2c0.3-0.5,0.4-1,0.4-1.7
				c0-0.7-0.2-1.4-0.6-1.9c-0.4-0.5-0.9-0.8-1.6-0.8c-1.9,0-2.8,1.9-2.8,5.7C101.7,26.6,103.2,26.2,103.8,25.2z"/>
			<path class="st4" d="M119,33.5c0,0.4-0.8,0.9-2.3,1.6c-1.5,0.7-2.7,1-3.5,1c-0.6,0-1.1-0.6-1.5-1.8c-0.3-1.1-0.5-2.5-0.5-4.1
				V10.7l5.7-0.2v16.5c0,3.4,0.1,5.3,0.4,5.6c0.1,0.1,0.4,0.2,1,0.4C118.8,33,119,33.2,119,33.5z"/>
			<path class="st4" d="M124.8,35.7h-5.6v-11c0-1.3-0.1-2.1-0.2-2.5c-0.1-0.2-0.4-0.3-1-0.5c-0.6-0.2-0.9-0.4-0.9-0.7
				c0-0.5,0.9-1,2.6-1.7c1.8-0.7,2.9-0.9,3.5-0.8c0.5,0.1,0.9,0.4,1.1,0.9c0.1,0.1,0.2,0.5,0.3,1.1c0.1,0.4,0.1,1.7,0.2,3.9V35.7z
				 M125.1,14.1c0,0.6-0.3,1.1-0.9,1.6c-0.6,0.4-1.4,0.6-2.2,0.6c-0.9,0-1.6-0.2-2.2-0.6c-0.6-0.4-0.9-0.9-0.9-1.6
				c0-0.6,0.3-1.1,0.9-1.6c0.6-0.4,1.4-0.7,2.2-0.7c0.9,0,1.6,0.2,2.2,0.7C124.8,13,125.1,13.5,125.1,14.1z"/>
			<path class="st4" d="M136.8,18.8l-0.1,3h-3.3v5.1c0,3.5,0.1,5.3,0.4,5.6c0.1,0.1,0.4,0.2,1,0.4c0.5,0.1,0.7,0.4,0.7,0.7
				c0,0.4-0.8,0.9-2.3,1.6c-1.5,0.7-2.7,1-3.5,1c-0.6,0-1.1-0.6-1.5-1.8c-0.3-1.1-0.5-2.5-0.5-4.1v-8.4h-2.9l0.1-3
				c0.4,0,0.7-0.1,1-0.1c0.8-0.1,1.4-0.4,1.8-0.7c0.6-0.5,1.2-2.2,1.8-5.3l3.9-0.1v6.2H136.8z"/>
			<path class="st4" d="M154.4,33.5c0,0.4-0.8,0.9-2.3,1.6c-1.5,0.7-2.7,1-3.5,1c-0.5,0-0.9-0.3-1.1-0.9c-1.1,0.6-2.2,0.9-3.5,0.9
				c-2.4,0-4.4-0.7-6-2.2c-1.7-1.6-2.6-3.8-2.6-6.7c0-2.8,0.9-4.9,2.6-6.5c1.6-1.4,3.6-2.1,6-2.1c1.2,0,2.5,0.2,3.9,0.6
				c0.6-0.1,2-0.3,4.3-0.4v8c0,3.4,0.1,5.3,0.4,5.6c0.1,0.1,0.4,0.2,1,0.4C154.1,33,154.4,33.2,154.4,33.5z M146.7,27.3
				c0-4.2-0.9-6.3-2.7-6.3c-1.8,0-2.8,2.1-2.8,6.3c0,4.2,0.9,6.3,2.8,6.3C145.8,33.6,146.7,31.5,146.7,27.3z"/>
			<path class="st4" d="M161.2,36c-0.6,0-1.5-0.1-2.7-0.2c-1.2-0.1-2.2-0.2-2.7-0.2c-0.7,0-1.3-0.6-1.8-1.8c-0.4-1-0.6-1.9-0.6-2.7
				s0.2-1.2,0.6-1.2c0.2,0,0.9,0.6,1.9,1.8c1,1.2,1.9,1.8,2.7,1.8c0.5,0,0.9-0.2,1.2-0.5c0.3-0.3,0.5-0.7,0.5-1.2
				c0-0.7-0.6-1.3-1.7-2.1c-1.7-1.1-2.7-1.8-3-2.1c-1.1-1-1.6-2.3-1.6-3.7c0-1.6,0.5-2.9,1.5-4c1-1,2.3-1.5,3.9-1.5
				c0.6,0,1.2,0.1,1.9,0.3c0.7,0.2,1.1,0.3,1.3,0.3c0.3,0,0.6-0.1,0.9-0.3c0.3-0.2,0.6-0.3,0.9-0.3c0.4,0,0.9,0.5,1.4,1.6
				c0.5,1.1,0.7,2,0.7,2.9c0,0.8-0.2,1.2-0.7,1.2c-0.2,0-0.5-0.2-0.8-0.6c-0.2-0.3-0.5-0.5-0.7-0.8c-1.1-1.2-2-1.8-2.8-1.8
				c-0.5,0-0.8,0.2-1.2,0.5c-0.3,0.3-0.5,0.7-0.5,1.2c0,0.7,0.6,1.5,1.7,2.2c1.8,1.1,2.9,1.8,3.2,2.1c1.1,1.1,1.7,2.4,1.7,3.9
				c0,1.5-0.5,2.8-1.5,3.7C163.9,35.6,162.7,36,161.2,36z"/>
		</g>
		<g>
			<path class="st5" d="M30.7,15.7c-0.2-0.5-0.7-1-1.3-1.4c-0.9-0.7-2.1-1-3.5-1c-1.9,0-3.3,1-4.3,3.1c-0.8,1.8-1.2,4.2-1.2,7.1
				c0,2.7,0.6,5,1.7,6.9c1.2,1.9,2.5,2.9,4.1,2.9c1.1,0,2.2-0.3,3.2-1c1-0.7,2.8-2,3.5-3.2c0.7,0.5,0.5,1.5,1.1,2
				c-2.1,3.2-5.2,4.8-9.2,4.8c-2.8,0-5.3-1.1-7.4-3.2c-2.3-2.3-3.4-5.3-3.4-8.9c0-3.9,1.2-7,3.5-9.4c2.2-2.2,4.8-3.3,7.8-3.3
				c3.6,0,6.3,1.1,8,3.4c0.7,0.9,1.1,1.9,1.1,2.9c0,0.9-0.3,1.7-0.9,2.4c-0.6,0.7-1.3,1-2.2,1c-0.4,0-0.8-0.1-1.2-0.2
				c-1-0.4-1.5-1.2-1.5-2.2c0-0.6,0.2-1.1,0.5-1.6C29.7,16.2,30.1,15.9,30.7,15.7z"/>
			<path class="st5" d="M51.4,33.3c0,0.4-0.8,0.9-2.3,1.6c-1.5,0.7-2.7,1-3.5,1c-0.5,0-0.9-0.3-1.1-0.9c-1.1,0.6-2.2,0.9-3.5,0.9
				c-2.4,0-4.4-0.7-6-2.2c-1.7-1.6-2.6-3.8-2.6-6.7c0-2.8,0.9-4.9,2.6-6.5c1.6-1.4,3.6-2.1,6-2.1c1.2,0,2.5,0.2,3.9,0.6
				c0.6-0.1,2-0.3,4.3-0.4v8c0,3.4,0.1,5.3,0.4,5.6c0.1,0.1,0.4,0.2,1,0.4C51.2,32.7,51.4,33,51.4,33.3z M43.8,27
				c0-4.2-0.9-6.3-2.7-6.3c-1.8,0-2.8,2.1-2.8,6.3c0,4.2,0.9,6.3,2.8,6.3C42.9,33.3,43.8,31.2,43.8,27z"/>
			<path class="st5" d="M65.9,21c0,0.9-0.3,1.6-0.8,2.1c-0.5,0.5-1.2,0.7-1.9,0.7c-0.8,0-1.5-0.5-1.9-1.4C61.2,22.2,61,22,60.7,22
				c-0.9,0-1.6,0.6-2.2,1.8c-0.6,1.2-0.9,2.7-0.9,4.5v7.1h-5.7V24.6c0-1.2-0.1-2.1-0.3-2.5c-0.1-0.2-0.4-0.3-0.9-0.5
				c-0.5-0.1-0.8-0.4-0.8-0.7c0-0.5,0.9-1,2.7-1.7c1.7-0.7,2.9-0.9,3.5-0.8c0.5,0.1,0.9,0.4,1.1,0.9c0.1,0.1,0.2,0.5,0.3,1.2
				c0,0.1,0.1,0.3,0.1,0.8c0,0.3,0.1,0.4,0.2,0.4c0,0,0.3-0.3,0.7-0.9c0.5-0.7,1-1.3,1.6-1.7c0.8-0.6,1.7-0.9,2.6-0.9
				c0.9,0,1.7,0.3,2.3,0.8C65.5,19.5,65.9,20.2,65.9,21z"/>
			<path class="st5" d="M94.4,33.3c0,0.4-0.8,0.9-2.3,1.6c-1.5,0.7-2.7,1-3.5,1c-0.7,0-1.2-0.6-1.6-1.8c-0.3-1.1-0.5-2.4-0.5-4
				c0-0.6,0.1-1.6,0.2-2.8C86.9,26,87,25,87,24.4c0-1.9-0.6-2.8-1.7-2.8c-0.7,0-1.4,0.5-1.9,1.5c-0.6,1-0.9,2-0.9,3.2v9.2h-5.7V24.1
				c0-1.7-0.5-2.5-1.5-2.5c-0.7,0-1.4,0.5-2,1.5c-0.6,1-0.9,2.1-0.9,3.2v9.1h-5.7V24.6c0-1.3-0.1-2.1-0.2-2.4
				c-0.1-0.2-0.4-0.4-1-0.5c-0.6-0.2-0.9-0.4-0.9-0.8c0-0.5,0.9-1,2.7-1.7c1.7-0.7,2.9-0.9,3.5-0.8c0.5,0.1,0.9,0.4,1.1,0.9
				c0.1,0.1,0.2,0.5,0.3,1.1c0,0.1,0.1,0.4,0.1,0.8c0,0.3,0.1,0.4,0.2,0.4c0,0,0.3-0.3,0.7-0.9c0.6-0.7,1.1-1.3,1.7-1.7
				c0.9-0.6,1.8-0.9,2.8-0.9c2.3,0,3.8,1.2,4.5,3.5c0,0.1,0.1,0.2,0.1,0.3c1-1.3,1.7-2.2,2.3-2.7c0.9-0.7,1.9-1.1,3.1-1.1
				c1.6,0,2.9,0.7,3.7,2c0.8,1.1,1.1,2.6,1.1,4.4c0,0.6-0.1,1.4-0.2,2.5c-0.1,1.1-0.2,2-0.2,2.6c0,1.4,0.1,2.3,0.4,2.6
				c0.1,0.1,0.5,0.2,1.1,0.4C94.2,32.7,94.4,33,94.4,33.3z"/>
			<path class="st5" d="M109.9,30.7c-1.7,3.5-4.3,5.3-7.8,5.3c-2.4,0-4.5-0.7-6.1-2.2c-1.8-1.6-2.7-3.9-2.7-6.7c0-2.8,0.9-5,2.6-6.6
				c1.6-1.5,3.8-2.3,6.5-2.3c2.3,0,4.2,0.5,5.6,1.5c1.3,0.9,2,2,2,3.4c0,1-0.4,2-1.1,3c-1.5,1.9-4.7,2.7-9.6,2.6
				c0,1.4,0.2,2.5,0.8,3.2c0.6,0.8,1.6,1.2,3,1.2c1.7,0,3-1.1,3.9-3.2L109.9,30.7z M103.8,25c0.3-0.5,0.4-1,0.4-1.7
				c0-0.7-0.2-1.4-0.6-1.9c-0.4-0.5-0.9-0.8-1.6-0.8c-1.9,0-2.8,1.9-2.8,5.7C101.7,26.4,103.2,25.9,103.8,25z"/>
			<path class="st5" d="M119,33.3c0,0.4-0.8,0.9-2.3,1.6c-1.5,0.7-2.7,1-3.5,1c-0.6,0-1.1-0.6-1.5-1.8c-0.3-1.1-0.5-2.5-0.5-4.1
				V10.4l5.7-0.2v16.5c0,3.4,0.1,5.3,0.4,5.6c0.1,0.1,0.4,0.2,1,0.4C118.8,32.7,119,33,119,33.3z"/>
			<path class="st5" d="M124.8,35.4h-5.6v-11c0-1.3-0.1-2.1-0.2-2.5c-0.1-0.2-0.4-0.3-1-0.5c-0.6-0.2-0.9-0.4-0.9-0.7
				c0-0.5,0.9-1,2.6-1.7c1.8-0.7,2.9-0.9,3.5-0.8c0.5,0.1,0.9,0.4,1.1,0.9c0.1,0.1,0.2,0.5,0.3,1.1c0.1,0.4,0.1,1.7,0.2,3.9V35.4z
				 M125.1,13.8c0,0.6-0.3,1.1-0.9,1.6c-0.6,0.4-1.4,0.6-2.2,0.6c-0.9,0-1.6-0.2-2.2-0.6c-0.6-0.4-0.9-0.9-0.9-1.6
				c0-0.6,0.3-1.1,0.9-1.6c0.6-0.4,1.4-0.7,2.2-0.7c0.9,0,1.6,0.2,2.2,0.7C124.8,12.7,125.1,13.2,125.1,13.8z"/>
			<path class="st5" d="M136.8,18.5l-0.1,3h-3.3v5.1c0,3.5,0.1,5.3,0.4,5.6c0.1,0.1,0.4,0.2,1,0.4c0.5,0.1,0.7,0.4,0.7,0.7
				c0,0.4-0.8,0.9-2.3,1.6c-1.5,0.7-2.7,1-3.5,1c-0.6,0-1.1-0.6-1.5-1.8c-0.3-1.1-0.5-2.5-0.5-4.1v-8.4h-2.9l0.1-3
				c0.4,0,0.7-0.1,1-0.1c0.8-0.1,1.4-0.4,1.8-0.7c0.6-0.5,1.2-2.2,1.8-5.3l3.9-0.1v6.2H136.8z"/>
			<path class="st5" d="M154.4,33.3c0,0.4-0.8,0.9-2.3,1.6c-1.5,0.7-2.7,1-3.5,1c-0.5,0-0.9-0.3-1.1-0.9c-1.1,0.6-2.2,0.9-3.5,0.9
				c-2.4,0-4.4-0.7-6-2.2c-1.7-1.6-2.6-3.8-2.6-6.7c0-2.8,0.9-4.9,2.6-6.5c1.6-1.4,3.6-2.1,6-2.1c1.2,0,2.5,0.2,3.9,0.6
				c0.6-0.1,2-0.3,4.3-0.4v8c0,3.4,0.1,5.3,0.4,5.6c0.1,0.1,0.4,0.2,1,0.4C154.1,32.7,154.4,33,154.4,33.3z M146.7,27
				c0-4.2-0.9-6.3-2.7-6.3c-1.8,0-2.8,2.1-2.8,6.3c0,4.2,0.9,6.3,2.8,6.3C145.8,33.3,146.7,31.2,146.7,27z"/>
			<path class="st5" d="M161.2,35.8c-0.6,0-1.5-0.1-2.7-0.2c-1.2-0.1-2.2-0.2-2.7-0.2c-0.7,0-1.3-0.6-1.8-1.8
				c-0.4-1-0.6-1.9-0.6-2.7c0-0.8,0.2-1.2,0.6-1.2c0.2,0,0.9,0.6,1.9,1.8c1,1.2,1.9,1.8,2.7,1.8c0.5,0,0.9-0.2,1.2-0.5
				c0.3-0.3,0.5-0.7,0.5-1.2c0-0.7-0.6-1.3-1.7-2.1c-1.7-1.1-2.7-1.8-3-2.1c-1.1-1-1.6-2.3-1.6-3.7c0-1.6,0.5-2.9,1.5-4
				c1-1,2.3-1.5,3.9-1.5c0.6,0,1.2,0.1,1.9,0.3c0.7,0.2,1.1,0.3,1.3,0.3c0.3,0,0.6-0.1,0.9-0.3c0.3-0.2,0.6-0.3,0.9-0.3
				c0.4,0,0.9,0.5,1.4,1.6c0.5,1.1,0.7,2,0.7,2.9c0,0.8-0.2,1.2-0.7,1.2c-0.2,0-0.5-0.2-0.8-0.6c-0.2-0.3-0.5-0.5-0.7-0.8
				c-1.1-1.2-2-1.8-2.8-1.8c-0.5,0-0.8,0.2-1.2,0.5c-0.3,0.3-0.5,0.7-0.5,1.2c0,0.7,0.6,1.5,1.7,2.2c1.8,1.1,2.9,1.8,3.2,2.1
				c1.1,1.1,1.7,2.4,1.7,3.9c0,1.5-0.5,2.8-1.5,3.7C163.9,35.3,162.7,35.8,161.2,35.8z"/>
		</g>
		<g>
			<linearGradient id="SVGID_2_" gradientUnits="userSpaceOnUse" x1="32.7707" y1="11.4293" x2="32.7707" y2="35.7352">
				<stop  offset="0" style="stop-color:#66B054"/>
				<stop  offset="1" style="stop-color:#8EBE4F"/>
			</linearGradient>
			<path class="st6" d="M50.9,33.2c0,0-0.1-0.1-0.3-0.2l0,0c-0.8-0.3-1.1-0.4-1.2-0.5c-0.2-0.2-0.6-0.6-0.6-5.9c0,0,0-6.5,0-7.4
				c-1.9,0.1-3.2,0.3-3.7,0.4l-0.1,0l-0.1,0c-1.4-0.4-2.6-0.6-3.7-0.6c-2.3,0-4.3,0.7-5.7,2c-1.6,1.4-2.4,3.5-2.4,6.1
				c0,0.9,0.1,1.7,0.3,2.5l0.1,0.2l-0.2,0.2c-0.9,1.2-2.5,2.3-3.3,2.8c-1.1,0.7-2.3,1.1-3.5,1.1c-1.8,0-3.3-1-4.6-3.1
				c-1.2-2-1.8-4.4-1.8-7.2c0-3,0.4-5.4,1.2-7.3c1-2.3,2.6-3.4,4.7-3.4c1.5,0,2.8,0.4,3.8,1.1c0.7,0.5,1.1,1,1.4,1.6l0.3,0.6
				l-0.6,0.1c-0.5,0.1-0.8,0.3-1.1,0.7c-0.3,0.4-0.4,0.9-0.4,1.4c0,0.8,0.4,1.4,1.2,1.8c0.3,0.1,0.6,0.2,1,0.2
				c0.7,0,1.3-0.3,1.8-0.8c0.5-0.6,0.8-1.2,0.8-2.1c0-0.9-0.3-1.8-1-2.6c-1.6-2.2-4.2-3.2-7.6-3.2c-2.9,0-5.4,1.1-7.5,3.2
				c-2.2,2.3-3.3,5.3-3.3,9c0,3.4,1.1,6.3,3.2,8.5c2,2.1,4.4,3.1,7.1,3.1c3.6,0,6.3-1.2,8.3-3.8l0.5-0.6l0.4,0.7
				c0.4,0.6,0.8,1.2,1.4,1.7c1.5,1.3,3.4,2,5.7,2c1.2,0,2.2-0.3,3.2-0.9l0.5-0.3l0.2,0.5c0.2,0.6,0.5,0.6,0.6,0.6
				c0.8,0,1.9-0.3,3.3-1C50.5,33.7,50.8,33.3,50.9,33.2z M43.6,31.9c-0.7,1.6-1.7,1.9-2.5,1.9c-2.2,0-3.3-2.3-3.3-6.8
				c0-4.5,1.1-6.8,3.3-6.8c2.2,0,3.2,2.3,3.2,6.8C44.3,29.1,44.1,30.7,43.6,31.9z"/>
			<linearGradient id="SVGID_3_" gradientUnits="userSpaceOnUse" x1="72.1086" y1="11.4293" x2="72.1086" y2="35.7353">
				<stop  offset="0" style="stop-color:#66B054"/>
				<stop  offset="1" style="stop-color:#8EBE4F"/>
			</linearGradient>
			<path class="st7" d="M93.9,33.2c0,0-0.1-0.1-0.4-0.2c-1-0.3-1.2-0.4-1.4-0.5c-0.3-0.3-0.5-0.8-0.5-2.9c0-0.6,0.1-1.5,0.2-2.6
				c0.1-1.1,0.2-1.9,0.2-2.5c0-1.7-0.4-3.1-1.1-4.1c-0.8-1.2-1.8-1.7-3.3-1.7c-1.1,0-2,0.3-2.7,1c-0.5,0.4-1.2,1.3-2.2,2.6L82.1,23
				c0,0-0.4-1.3-0.4-1.3c-0.7-2.1-2-3.1-4-3.1c-0.9,0-1.7,0.3-2.5,0.8c-0.5,0.4-1,0.9-1.6,1.6c-0.7,1-0.8,1.1-1.2,1.1
				c-0.2,0-0.6-0.1-0.7-0.9c-0.1-0.6-0.1-0.7-0.1-0.7c-0.2-0.8-0.3-1-0.3-1c0,0,0,0,0,0l0,0c-0.2-0.3-0.4-0.5-0.7-0.6
				c-0.3-0.1-1.1,0-3.2,0.8c-0.7,0.2-1.2,0.5-1.6,0.7l-0.5,0.3l-0.2-0.5c-0.1-0.3-0.3-0.5-0.6-0.8c-0.6-0.5-1.2-0.7-2-0.7
				c-0.8,0-1.6,0.3-2.3,0.8c-0.5,0.4-1,0.9-1.5,1.6c-0.7,1-0.8,1.1-1.1,1.1c-0.2,0-0.6-0.1-0.7-0.9c-0.1-0.6-0.1-0.7-0.1-0.7
				c0,0,0,0,0,0l0,0c-0.2-0.8-0.3-1-0.3-1c0,0,0,0,0,0l0,0c-0.2-0.3-0.4-0.5-0.7-0.6c-0.3-0.1-1.1,0-3.2,0.8c-2,0.8-2.3,1.2-2.3,1.3
				c0,0.1,0.2,0.2,0.4,0.2c0.7,0.2,1.1,0.4,1.3,0.8c0.2,0.5,0.4,1.4,0.4,2.7c0,0,0,9.4,0,10.3c0.8,0,3.9,0,4.7,0c0-0.9,0-6.6,0-6.6
				c0-1.9,0.3-3.5,1-4.7c0.7-1.4,1.6-2.1,2.7-2.1c0.5,0,0.9,0.3,1.1,0.8l0-0.1c0.4,0.9,1,1,1.4,1c0.6,0,1.1-0.2,1.5-0.6
				c0.3-0.3,0.5-0.6,0.6-1l0.1-0.6l0.5,0.2c0.6,0.2,0.8,0.4,1,0.7c0.1,0.3,0.2,0.8,0.2,2.6c0,0,0,9.4,0,10.3c0.8,0,3.9,0,4.7,0
				c0-0.9,0-8.6,0-8.6c0-1.2,0.3-2.4,1-3.5c0.7-1.2,1.5-1.8,2.4-1.8c0.9,0,2,0.5,2,3c0,0,0,9.9,0,10.8c0.8,0,3.9,0,4.6,0
				c0-0.9,0-8.7,0-8.7c0-1.2,0.3-2.4,0.9-3.4c0.7-1.1,1.5-1.7,2.4-1.7c1,0,2.2,0.6,2.2,3.3c0,0.6-0.1,1.6-0.2,2.9
				c-0.1,1.2-0.2,2.2-0.2,2.8c0,1.6,0.2,2.9,0.5,3.9c0.2,0.5,0.5,1.5,1.1,1.5c0.8,0,1.9-0.3,3.3-1C93.5,33.6,93.8,33.3,93.9,33.2z"
				/>
			<linearGradient id="SVGID_4_" gradientUnits="userSpaceOnUse" x1="101.6908" y1="11.4293" x2="101.6908" y2="35.7353">
				<stop  offset="0" style="stop-color:#66B054"/>
				<stop  offset="1" style="stop-color:#8EBE4F"/>
			</linearGradient>
			<path class="st8" d="M107.3,30.4c-1,2-2.4,3.1-4.2,3.1c-1.5,0-2.7-0.5-3.4-1.4c-0.6-0.8-0.9-2-0.9-3.6l0-0.5l0.5,0
				c4.7,0.1,7.8-0.7,9.2-2.4l0,0c0.7-0.9,1-1.8,1-2.7c0-1.2-0.6-2.2-1.8-3c-1.3-0.9-3.1-1.4-5.3-1.4c-2.5,0-4.6,0.7-6.1,2.1
				c-1.6,1.5-2.5,3.6-2.5,6.2c0,2.7,0.9,4.9,2.5,6.4c1.5,1.4,3.4,2.1,5.7,2.1c3.1,0,5.4-1.5,7-4.5C108.5,30.7,107.8,30.5,107.3,30.4
				z M98.7,26.2c0-4.2,1.1-6.3,3.4-6.3c0.9,0,1.6,0.4,2,1c0.4,0.6,0.7,1.4,0.7,2.2c0,0.7-0.2,1.4-0.5,1.9c-0.7,1.1-2.4,1.7-5.1,1.6
				l-0.5,0V26.2z"/>
			<linearGradient id="SVGID_5_" gradientUnits="userSpaceOnUse" x1="115.1075" y1="11.4294" x2="115.1075" y2="35.7352">
				<stop  offset="0" style="stop-color:#66B054"/>
				<stop  offset="1" style="stop-color:#8EBE4F"/>
			</linearGradient>
			<path class="st9" d="M118.5,33.2c0,0-0.1-0.1-0.3-0.1l0,0c-0.9-0.3-1.1-0.4-1.3-0.5c-0.2-0.2-0.6-0.6-0.6-5.9c0,0,0-14.9,0-15.9
				c-0.8,0-3.9,0.2-4.7,0.2c0,0.9,0,19.1,0,19.1c0,1.6,0.2,2.9,0.5,3.9c0.2,0.5,0.5,1.5,1,1.5c0.8,0,1.9-0.3,3.3-1
				C118.2,33.6,118.5,33.2,118.5,33.2z"/>
			<linearGradient id="SVGID_6_" gradientUnits="userSpaceOnUse" x1="120.9772" y1="11.4292" x2="120.9772" y2="35.7352">
				<stop  offset="0" style="stop-color:#66B054"/>
				<stop  offset="1" style="stop-color:#8EBE4F"/>
			</linearGradient>
			<path class="st10" d="M123.9,19.2c-0.1-0.3-0.4-0.5-0.7-0.6c-0.3-0.1-1.1,0-3.2,0.8c-2,0.8-2.3,1.2-2.3,1.3c0,0,0.1,0.1,0.5,0.2
				c0.8,0.2,1.2,0.5,1.3,0.8c0.1,0.3,0.2,0.8,0.2,2.6c0,0,0,9.6,0,10.5c0.8,0,3.9,0,4.6,0c0-0.9,0-10.9,0-10.9
				c-0.1-2.7-0.1-3.6-0.2-3.8C124,19.4,123.9,19.2,123.9,19.2L123.9,19.2z"/>
			<linearGradient id="SVGID_7_" gradientUnits="userSpaceOnUse" x1="121.9837" y1="11.4294" x2="121.9837" y2="35.7351">
				<stop  offset="0" style="stop-color:#66B054"/>
				<stop  offset="1" style="stop-color:#8EBE4F"/>
			</linearGradient>
			<path class="st11" d="M124.6,13.8c0-0.4-0.2-0.8-0.7-1.2c-0.5-0.4-1.2-0.6-1.9-0.6c-0.8,0-1.4,0.2-2,0.6
				c-0.5,0.3-0.7,0.7-0.7,1.2c0,0.4,0.2,0.8,0.7,1.1c0.5,0.4,1.2,0.6,2,0.6c0.8,0,1.4-0.2,1.9-0.6C124.4,14.6,124.6,14.2,124.6,13.8
				z"/>
			<linearGradient id="SVGID_8_" gradientUnits="userSpaceOnUse" x1="130.883" y1="11.4293" x2="130.883" y2="35.7354">
				<stop  offset="0" style="stop-color:#66B054"/>
				<stop  offset="1" style="stop-color:#8EBE4F"/>
			</linearGradient>
			<path class="st12" d="M135.1,33.2c0-0.1-0.2-0.2-0.3-0.2c-0.9-0.2-1.1-0.4-1.3-0.5c-0.2-0.2-0.6-0.6-0.6-6V21c0,0,2.6,0,3.3,0
				c0-0.5,0-1.4,0.1-2c-0.8,0-3.4,0-3.4,0s0-5.3,0-6.2c-0.7,0-2.4,0.1-2.9,0.1c-0.7,3.9-1.4,4.9-1.9,5.2c-0.5,0.4-1.2,0.6-2,0.8
				c-0.2,0-0.4,0.1-0.6,0.1c0,0.5,0,1.4-0.1,2c0.7,0,2.9,0,2.9,0v9c0,1.6,0.2,2.9,0.5,3.9c0.2,0.5,0.5,1.5,1,1.5
				c0.8,0,1.9-0.3,3.3-1C134.8,33.6,135,33.3,135.1,33.2z"/>
			<g>
				<linearGradient id="SVGID_9_" gradientUnits="userSpaceOnUse" x1="144.8992" y1="11.4291" x2="144.8992" y2="35.7351">
					<stop  offset="0" style="stop-color:#66B054"/>
					<stop  offset="1" style="stop-color:#8EBE4F"/>
				</linearGradient>
				<path class="st13" d="M153.9,33.1c-0.2-0.1-0.5-0.1-0.5-0.1c-0.8-0.2-1-0.4-1.2-0.5c-0.2-0.2-0.6-0.6-0.6-5.9c0,0,0-6.5,0-7.4
					c-1.9,0.1-3.2,0.3-3.7,0.4l-0.1,0l-0.1,0c-1.4-0.4-2.6-0.6-3.7-0.6c-2.3,0-4.3,0.7-5.7,2c-1.6,1.4-2.4,3.5-2.4,6.1
					c0,2.7,0.8,4.8,2.4,6.3c1.5,1.3,3.4,2,5.7,2c1.2,0,2.2-0.3,3.2-0.9l0.5-0.3l0.2,0.5c0.2,0.6,0.5,0.6,0.6,0.6
					c0.8,0,1.9-0.3,3.3-1c0.9-0.4,1.5-0.7,1.8-1C153.7,33.3,153.8,33.2,153.9,33.1z M146.5,31.9c-0.7,1.6-1.7,1.9-2.5,1.9
					c-2.2,0-3.3-2.3-3.3-6.8c0-4.5,1.1-6.8,3.3-6.8c2.2,0,3.2,2.3,3.2,6.8C147.2,29.1,147,30.7,146.5,31.9z"/>
				<linearGradient id="SVGID_10_" gradientUnits="userSpaceOnUse" x1="159.9579" y1="11.429" x2="159.9579" y2="35.7355">
					<stop  offset="0" style="stop-color:#66B054"/>
					<stop  offset="1" style="stop-color:#8EBE4F"/>
				</linearGradient>
				<path class="st14" d="M164.4,27.1c-0.1-0.1-0.7-0.6-3.1-2c-1.3-0.8-1.9-1.7-1.9-2.6c0-0.6,0.2-1.1,0.6-1.5
					c0.4-0.5,0.9-0.7,1.5-0.7c0.9,0,1.9,0.7,3.1,2l0,0c0,0,0.7,0.8,0.7,0.8c0.3,0.4,0.5,0.4,0.5,0.4c0,0,0,0,0,0
					c0,0,0.1-0.1,0.1-0.7c0-0.8-0.2-1.7-0.7-2.7c-0.6-1.2-0.9-1.3-0.9-1.3c-0.2,0-0.4,0.1-0.6,0.2c-0.4,0.2-0.8,0.3-1.1,0.3
					c-0.2,0-0.5,0-1.5-0.3c-0.6-0.2-1.2-0.2-1.8-0.2c-1.5,0-2.7,0.5-3.6,1.4c-0.9,0.9-1.4,2.1-1.4,3.6c0,1.3,0.5,2.4,1.5,3.3
					c0.2,0.2,0.9,0.7,2.9,2.1c1.3,0.8,1.9,1.6,1.9,2.5c0,0.6-0.2,1.2-0.7,1.6c-0.4,0.4-1,0.6-1.6,0.6c-1,0-2-0.7-3.1-2
					c-0.9-1.1-1.3-1.5-1.5-1.6c0,0.1-0.1,0.3-0.1,0.7c0,0.4,0.1,0.9,0.2,1.4c0,0,0.1,0.3,0.2,0.6c0.1,0.1,0.2,0.5,0.2,0.5
					c0.3,0.6,0.7,1.4,1.3,1.4c0.6,0,1.5,0.1,2.8,0.2c1.2,0.1,2.1,0.2,2.7,0.2c1.4,0,2.5-0.4,3.4-1.3c0.9-0.8,1.4-1.9,1.4-3.3
					C166,29.2,165.5,28,164.4,27.1z"/>
			</g>
		</g>
	</g>
	<defs>
		<filter id="Adobe_OpacityMaskFilter" filterUnits="userSpaceOnUse" x="14.1" y="10.7" width="151.4" height="24.7">
			<feColorMatrix  type="matrix" values="1 0 0 0 0  0 1 0 0 0  0 0 1 0 0  0 0 0 1 0"/>
		</filter>
	</defs>
	<mask maskUnits="userSpaceOnUse" x="14.1" y="10.7" width="151.4" height="24.7" id="SVGID_11_">
		<g class="st15">
			<g>
				<linearGradient id="SVGID_12_" gradientUnits="userSpaceOnUse" x1="32.4501" y1="11.5006" x2="32.4501" y2="35.8065">
					<stop  offset="1.685390e-002" style="stop-color:#000000"/>
					<stop  offset="0.1151" style="stop-color:#6A6B6D"/>
					<stop  offset="0.2126" style="stop-color:#9A9C9E"/>
					<stop  offset="0.3004" style="stop-color:#C3C4C6"/>
					<stop  offset="0.3765" style="stop-color:#E2E2E3"/>
					<stop  offset="0.4381" style="stop-color:#F5F5F5"/>
					<stop  offset="0.4775" style="stop-color:#FFFFFF"/>
					<stop  offset="0.522" style="stop-color:#F3F4F4"/>
					<stop  offset="0.5973" style="stop-color:#DDDDDF"/>
					<stop  offset="0.6943" style="stop-color:#B8BABC"/>
					<stop  offset="0.8092" style="stop-color:#898B8D"/>
					<stop  offset="0.9377" style="stop-color:#4F4F51"/>
					<stop  offset="1" style="stop-color:#000000"/>
				</linearGradient>
				<path class="st16" d="M50.6,33.2c0,0-0.1-0.1-0.3-0.2l0,0c-0.8-0.3-1.1-0.4-1.2-0.5c-0.2-0.2-0.6-0.6-0.6-5.9c0,0,0-6.5,0-7.4
					c-1.9,0.1-3.2,0.3-3.7,0.4l-0.1,0l-0.1,0c-1.4-0.4-2.6-0.6-3.7-0.6c-2.3,0-4.3,0.7-5.7,2c-1.6,1.4-2.4,3.5-2.4,6.1
					c0,0.9,0.1,1.7,0.3,2.5l0.1,0.2l-0.2,0.2c-0.9,1.2-2.5,2.3-3.3,2.8c-1.1,0.7-2.3,1.1-3.5,1.1c-1.8,0-3.3-1-4.6-3.1
					c-1.2-2-1.8-4.4-1.8-7.2c0-3,0.4-5.4,1.2-7.3c1-2.3,2.6-3.4,4.7-3.4c1.5,0,2.8,0.4,3.8,1.1c0.7,0.5,1.1,1,1.4,1.6l0.3,0.6
					l-0.6,0.1c-0.5,0.1-0.8,0.3-1.1,0.7c-0.3,0.4-0.4,0.9-0.4,1.4c0,0.8,0.4,1.4,1.2,1.8c0.3,0.1,0.6,0.2,1,0.2
					c0.7,0,1.3-0.3,1.8-0.8c0.5-0.6,0.8-1.2,0.8-2.1c0-0.9-0.3-1.8-1-2.6c-1.6-2.2-4.2-3.2-7.6-3.2c-2.9,0-5.4,1.1-7.5,3.2
					c-2.2,2.3-3.3,5.3-3.3,9c0,3.4,1.1,6.3,3.2,8.5c2,2.1,4.4,3.1,7.1,3.1c3.6,0,6.3-1.2,8.3-3.8l0.5-0.6l0.4,0.7
					c0.4,0.6,0.8,1.2,1.4,1.7c1.5,1.3,3.4,2,5.7,2c1.2,0,2.2-0.3,3.2-0.9l0.5-0.3l0.2,0.5c0.2,0.6,0.5,0.6,0.6,0.6
					c0.8,0,1.9-0.3,3.3-1C50.1,33.7,50.5,33.4,50.6,33.2z M43.3,31.9c-0.7,1.6-1.7,1.9-2.5,1.9c-2.2,0-3.3-2.3-3.3-6.8
					c0-4.5,1.1-6.8,3.3-6.8c2.2,0,3.2,2.3,3.2,6.8C44,29.2,43.8,30.8,43.3,31.9z"/>
				<linearGradient id="SVGID_13_" gradientUnits="userSpaceOnUse" x1="71.7879" y1="11.5006" x2="71.7879" y2="35.8065">
					<stop  offset="1.685390e-002" style="stop-color:#000000"/>
					<stop  offset="0.1151" style="stop-color:#6A6B6D"/>
					<stop  offset="0.2126" style="stop-color:#9A9C9E"/>
					<stop  offset="0.3004" style="stop-color:#C3C4C6"/>
					<stop  offset="0.3765" style="stop-color:#E2E2E3"/>
					<stop  offset="0.4381" style="stop-color:#F5F5F5"/>
					<stop  offset="0.4775" style="stop-color:#FFFFFF"/>
					<stop  offset="0.522" style="stop-color:#F3F4F4"/>
					<stop  offset="0.5973" style="stop-color:#DDDDDF"/>
					<stop  offset="0.6943" style="stop-color:#B8BABC"/>
					<stop  offset="0.8092" style="stop-color:#898B8D"/>
					<stop  offset="0.9377" style="stop-color:#4F4F51"/>
					<stop  offset="1" style="stop-color:#000000"/>
				</linearGradient>
				<path class="st17" d="M93.6,33.2c0,0-0.1-0.1-0.4-0.2c-1-0.3-1.2-0.4-1.4-0.5c-0.3-0.3-0.5-0.8-0.5-2.9c0-0.6,0.1-1.5,0.2-2.6
					c0.1-1.1,0.2-1.9,0.2-2.5c0-1.7-0.4-3.1-1.1-4.1c-0.8-1.2-1.8-1.7-3.3-1.7c-1.1,0-2,0.3-2.7,1c-0.5,0.4-1.2,1.3-2.2,2.6
					l-0.6,0.8c0,0-0.4-1.3-0.4-1.3c-0.7-2.1-2-3.1-4-3.1c-0.9,0-1.7,0.3-2.5,0.8c-0.5,0.4-1,0.9-1.6,1.6c-0.7,1-0.8,1.1-1.2,1.1
					c-0.2,0-0.6-0.1-0.7-0.9c-0.1-0.6-0.1-0.7-0.1-0.7c-0.2-0.8-0.3-1-0.3-1c0,0,0,0,0,0l0,0c-0.2-0.3-0.4-0.5-0.7-0.6
					c-0.3-0.1-1.1,0-3.2,0.8c-0.7,0.2-1.2,0.5-1.6,0.7l-0.5,0.3l-0.2-0.5c-0.1-0.3-0.3-0.5-0.6-0.8c-0.6-0.5-1.2-0.7-2-0.7
					c-0.8,0-1.6,0.3-2.3,0.8c-0.5,0.4-1,0.9-1.5,1.6c-0.7,1-0.8,1.1-1.1,1.1c-0.2,0-0.6-0.1-0.7-0.9c-0.1-0.6-0.1-0.7-0.1-0.7
					c0,0,0,0,0,0l0,0c-0.2-0.8-0.3-1-0.3-1c0,0,0,0,0,0l0,0c-0.2-0.3-0.4-0.5-0.7-0.6c-0.3-0.1-1.1,0-3.2,0.8
					c-2,0.8-2.3,1.2-2.3,1.3c0,0.1,0.2,0.2,0.4,0.2c0.7,0.2,1.1,0.4,1.3,0.8c0.2,0.5,0.4,1.4,0.4,2.7c0,0,0,9.4,0,10.3
					c0.8,0,3.9,0,4.7,0c0-0.9,0-6.6,0-6.6c0-1.9,0.3-3.5,1-4.7c0.7-1.4,1.6-2.1,2.7-2.1c0.5,0,0.9,0.3,1.1,0.8l0-0.1
					c0.4,0.9,1,1,1.4,1c0.6,0,1.1-0.2,1.5-0.6c0.3-0.3,0.5-0.6,0.6-1l0.1-0.6l0.5,0.2c0.6,0.2,0.8,0.4,1,0.7
					c0.1,0.3,0.2,0.8,0.2,2.6c0,0,0,9.4,0,10.3c0.8,0,3.9,0,4.7,0c0-0.9,0-8.6,0-8.6c0-1.2,0.3-2.4,1-3.5c0.7-1.2,1.5-1.8,2.4-1.8
					c0.9,0,2,0.5,2,3c0,0,0,9.9,0,10.8c0.8,0,3.9,0,4.6,0c0-0.9,0-8.7,0-8.7c0-1.2,0.3-2.4,0.9-3.4c0.7-1.1,1.5-1.7,2.4-1.7
					c1,0,2.2,0.6,2.2,3.3c0,0.6-0.1,1.6-0.2,2.9c-0.1,1.2-0.2,2.2-0.2,2.8c0,1.6,0.2,2.9,0.5,3.9c0.2,0.5,0.5,1.5,1.1,1.5
					c0.8,0,1.9-0.3,3.3-1C93.2,33.7,93.5,33.3,93.6,33.2z"/>
				<linearGradient id="SVGID_14_" gradientUnits="userSpaceOnUse" x1="101.3702" y1="11.5006" x2="101.3702" y2="35.8065">
					<stop  offset="1.685390e-002" style="stop-color:#000000"/>
					<stop  offset="0.1151" style="stop-color:#6A6B6D"/>
					<stop  offset="0.2126" style="stop-color:#9A9C9E"/>
					<stop  offset="0.3004" style="stop-color:#C3C4C6"/>
					<stop  offset="0.3765" style="stop-color:#E2E2E3"/>
					<stop  offset="0.4381" style="stop-color:#F5F5F5"/>
					<stop  offset="0.4775" style="stop-color:#FFFFFF"/>
					<stop  offset="0.522" style="stop-color:#F3F4F4"/>
					<stop  offset="0.5973" style="stop-color:#DDDDDF"/>
					<stop  offset="0.6943" style="stop-color:#B8BABC"/>
					<stop  offset="0.8092" style="stop-color:#898B8D"/>
					<stop  offset="0.9377" style="stop-color:#4F4F51"/>
					<stop  offset="1" style="stop-color:#000000"/>
				</linearGradient>
				<path class="st18" d="M107,30.5c-1,2-2.4,3.1-4.2,3.1c-1.5,0-2.7-0.5-3.4-1.4c-0.6-0.8-0.9-2-0.9-3.6l0-0.5l0.5,0
					c4.7,0.1,7.8-0.7,9.2-2.4l0,0c0.7-0.9,1-1.8,1-2.7c0-1.2-0.6-2.2-1.8-3c-1.3-0.9-3.1-1.4-5.3-1.4c-2.5,0-4.6,0.7-6.1,2.1
					c-1.6,1.5-2.5,3.6-2.5,6.2c0,2.7,0.9,4.9,2.5,6.4c1.5,1.4,3.4,2.1,5.7,2.1c3.1,0,5.4-1.5,7-4.5C108.2,30.8,107.4,30.6,107,30.5z
					 M98.4,26.3c0-4.2,1.1-6.3,3.4-6.3c0.9,0,1.6,0.4,2,1c0.4,0.6,0.7,1.4,0.7,2.2c0,0.7-0.2,1.4-0.5,1.9c-0.7,1.1-2.4,1.7-5.1,1.6
					l-0.5,0V26.3z"/>
				<linearGradient id="SVGID_15_" gradientUnits="userSpaceOnUse" x1="114.7867" y1="11.5004" x2="114.7867" y2="35.8065">
					<stop  offset="1.685390e-002" style="stop-color:#000000"/>
					<stop  offset="0.1151" style="stop-color:#6A6B6D"/>
					<stop  offset="0.2126" style="stop-color:#9A9C9E"/>
					<stop  offset="0.3004" style="stop-color:#C3C4C6"/>
					<stop  offset="0.3765" style="stop-color:#E2E2E3"/>
					<stop  offset="0.4381" style="stop-color:#F5F5F5"/>
					<stop  offset="0.4775" style="stop-color:#FFFFFF"/>
					<stop  offset="0.522" style="stop-color:#F3F4F4"/>
					<stop  offset="0.5973" style="stop-color:#DDDDDF"/>
					<stop  offset="0.6943" style="stop-color:#B8BABC"/>
					<stop  offset="0.8092" style="stop-color:#898B8D"/>
					<stop  offset="0.9377" style="stop-color:#4F4F51"/>
					<stop  offset="1" style="stop-color:#000000"/>
				</linearGradient>
				<path class="st19" d="M118.2,33.2c0,0-0.1-0.1-0.3-0.1l0,0c-0.9-0.3-1.1-0.4-1.3-0.5c-0.2-0.2-0.6-0.6-0.6-5.9
					c0,0,0-14.9,0-15.9c-0.8,0-3.9,0.2-4.7,0.2c0,0.9,0,19.1,0,19.1c0,1.6,0.2,2.9,0.5,3.9c0.2,0.5,0.5,1.5,1,1.5
					c0.8,0,1.9-0.3,3.3-1C117.9,33.7,118.1,33.3,118.2,33.2z"/>
				<linearGradient id="SVGID_16_" gradientUnits="userSpaceOnUse" x1="120.6565" y1="11.5005" x2="120.6565" y2="35.8065">
					<stop  offset="1.685390e-002" style="stop-color:#000000"/>
					<stop  offset="0.1151" style="stop-color:#6A6B6D"/>
					<stop  offset="0.2126" style="stop-color:#9A9C9E"/>
					<stop  offset="0.3004" style="stop-color:#C3C4C6"/>
					<stop  offset="0.3765" style="stop-color:#E2E2E3"/>
					<stop  offset="0.4381" style="stop-color:#F5F5F5"/>
					<stop  offset="0.4775" style="stop-color:#FFFFFF"/>
					<stop  offset="0.522" style="stop-color:#F3F4F4"/>
					<stop  offset="0.5973" style="stop-color:#DDDDDF"/>
					<stop  offset="0.6943" style="stop-color:#B8BABC"/>
					<stop  offset="0.8092" style="stop-color:#898B8D"/>
					<stop  offset="0.9377" style="stop-color:#4F4F51"/>
					<stop  offset="1" style="stop-color:#000000"/>
				</linearGradient>
				<path class="st20" d="M123.6,19.2c-0.1-0.3-0.4-0.5-0.7-0.6c-0.3-0.1-1.1,0-3.2,0.8c-2,0.8-2.3,1.2-2.3,1.3c0,0,0.1,0.1,0.5,0.2
					c0.8,0.2,1.2,0.5,1.3,0.8c0.1,0.3,0.2,0.8,0.2,2.6c0,0,0,9.6,0,10.5c0.8,0,3.9,0,4.6,0c0-0.9,0-10.9,0-10.9
					c-0.1-2.7-0.1-3.6-0.2-3.8C123.7,19.4,123.6,19.3,123.6,19.2L123.6,19.2z"/>
				<linearGradient id="SVGID_17_" gradientUnits="userSpaceOnUse" x1="121.6631" y1="11.5002" x2="121.6631" y2="35.8088">
					<stop  offset="1.685390e-002" style="stop-color:#000000"/>
					<stop  offset="0.1151" style="stop-color:#6A6B6D"/>
					<stop  offset="0.2126" style="stop-color:#9A9C9E"/>
					<stop  offset="0.3004" style="stop-color:#C3C4C6"/>
					<stop  offset="0.3765" style="stop-color:#E2E2E3"/>
					<stop  offset="0.4381" style="stop-color:#F5F5F5"/>
					<stop  offset="0.4775" style="stop-color:#FFFFFF"/>
					<stop  offset="0.522" style="stop-color:#F3F4F4"/>
					<stop  offset="0.5973" style="stop-color:#DDDDDF"/>
					<stop  offset="0.6943" style="stop-color:#B8BABC"/>
					<stop  offset="0.8092" style="stop-color:#898B8D"/>
					<stop  offset="0.9377" style="stop-color:#4F4F51"/>
					<stop  offset="1" style="stop-color:#000000"/>
				</linearGradient>
				<path class="st21" d="M124.3,13.8c0-0.4-0.2-0.8-0.7-1.2c-0.5-0.4-1.2-0.6-1.9-0.6c-0.8,0-1.4,0.2-2,0.6
					c-0.5,0.3-0.7,0.7-0.7,1.2c0,0.4,0.2,0.8,0.7,1.1c0.5,0.4,1.2,0.6,2,0.6c0.8,0,1.4-0.2,1.9-0.6
					C124.1,14.6,124.3,14.3,124.3,13.8z"/>
				<linearGradient id="SVGID_18_" gradientUnits="userSpaceOnUse" x1="130.5625" y1="11.5006" x2="130.5625" y2="35.8064">
					<stop  offset="1.685390e-002" style="stop-color:#000000"/>
					<stop  offset="0.1151" style="stop-color:#6A6B6D"/>
					<stop  offset="0.2126" style="stop-color:#9A9C9E"/>
					<stop  offset="0.3004" style="stop-color:#C3C4C6"/>
					<stop  offset="0.3765" style="stop-color:#E2E2E3"/>
					<stop  offset="0.4381" style="stop-color:#F5F5F5"/>
					<stop  offset="0.4775" style="stop-color:#FFFFFF"/>
					<stop  offset="0.522" style="stop-color:#F3F4F4"/>
					<stop  offset="0.5973" style="stop-color:#DDDDDF"/>
					<stop  offset="0.6943" style="stop-color:#B8BABC"/>
					<stop  offset="0.8092" style="stop-color:#898B8D"/>
					<stop  offset="0.9377" style="stop-color:#4F4F51"/>
					<stop  offset="1" style="stop-color:#000000"/>
				</linearGradient>
				<path class="st22" d="M134.8,33.3c0-0.1-0.2-0.2-0.3-0.2c-0.9-0.2-1.1-0.4-1.3-0.5c-0.2-0.2-0.6-0.6-0.6-6V21c0,0,2.6,0,3.3,0
					c0-0.5,0-1.4,0.1-2c-0.8,0-3.4,0-3.4,0s0-5.3,0-6.2c-0.7,0-2.4,0.1-2.9,0.1c-0.7,3.9-1.4,4.9-1.9,5.2c-0.5,0.4-1.2,0.6-2,0.8
					c-0.2,0-0.4,0.1-0.6,0.1c0,0.5,0,1.4-0.1,2c0.7,0,2.9,0,2.9,0v9c0,1.6,0.2,2.9,0.5,3.9c0.2,0.5,0.5,1.5,1,1.5
					c0.8,0,1.9-0.3,3.3-1C134.4,33.7,134.7,33.3,134.8,33.3z"/>
				<g>
					<linearGradient id="SVGID_19_" gradientUnits="userSpaceOnUse" x1="144.5787" y1="11.5004" x2="144.5787" y2="35.8064">
						<stop  offset="1.685390e-002" style="stop-color:#000000"/>
						<stop  offset="0.1151" style="stop-color:#6A6B6D"/>
						<stop  offset="0.2126" style="stop-color:#9A9C9E"/>
						<stop  offset="0.3004" style="stop-color:#C3C4C6"/>
						<stop  offset="0.3765" style="stop-color:#E2E2E3"/>
						<stop  offset="0.4381" style="stop-color:#F5F5F5"/>
						<stop  offset="0.4775" style="stop-color:#FFFFFF"/>
						<stop  offset="0.522" style="stop-color:#F3F4F4"/>
						<stop  offset="0.5973" style="stop-color:#DDDDDF"/>
						<stop  offset="0.6943" style="stop-color:#B8BABC"/>
						<stop  offset="0.8092" style="stop-color:#898B8D"/>
						<stop  offset="0.9377" style="stop-color:#4F4F51"/>
						<stop  offset="1" style="stop-color:#000000"/>
					</linearGradient>
					<path class="st23" d="M153.6,33.2c-0.2-0.1-0.5-0.1-0.5-0.1c-0.8-0.2-1-0.4-1.2-0.5c-0.2-0.2-0.6-0.6-0.6-5.9c0,0,0-6.5,0-7.4
						c-1.9,0.1-3.2,0.3-3.7,0.4l-0.1,0l-0.1,0c-1.4-0.4-2.6-0.6-3.7-0.6c-2.3,0-4.3,0.7-5.7,2c-1.6,1.4-2.4,3.5-2.4,6.1
						c0,2.7,0.8,4.8,2.4,6.3c1.5,1.3,3.4,2,5.7,2c1.2,0,2.2-0.3,3.2-0.9l0.5-0.3l0.2,0.5c0.2,0.6,0.5,0.6,0.6,0.6
						c0.8,0,1.9-0.3,3.3-1c0.9-0.4,1.5-0.7,1.8-1C153.4,33.4,153.5,33.3,153.6,33.2z M146.2,31.9c-0.7,1.6-1.7,1.9-2.5,1.9
						c-2.2,0-3.3-2.3-3.3-6.8c0-4.5,1.1-6.8,3.3-6.8c2.2,0,3.2,2.3,3.2,6.8C146.9,29.2,146.7,30.8,146.2,31.9z"/>
					<linearGradient id="SVGID_20_" gradientUnits="userSpaceOnUse" x1="159.6373" y1="11.5" x2="159.6373" y2="35.8068">
						<stop  offset="1.685390e-002" style="stop-color:#000000"/>
						<stop  offset="0.1151" style="stop-color:#6A6B6D"/>
						<stop  offset="0.2126" style="stop-color:#9A9C9E"/>
						<stop  offset="0.3004" style="stop-color:#C3C4C6"/>
						<stop  offset="0.3765" style="stop-color:#E2E2E3"/>
						<stop  offset="0.4381" style="stop-color:#F5F5F5"/>
						<stop  offset="0.4775" style="stop-color:#FFFFFF"/>
						<stop  offset="0.522" style="stop-color:#F3F4F4"/>
						<stop  offset="0.5973" style="stop-color:#DDDDDF"/>
						<stop  offset="0.6943" style="stop-color:#B8BABC"/>
						<stop  offset="0.8092" style="stop-color:#898B8D"/>
						<stop  offset="0.9377" style="stop-color:#4F4F51"/>
						<stop  offset="1" style="stop-color:#000000"/>
					</linearGradient>
					<path class="st24" d="M164.1,27.1c-0.1-0.1-0.7-0.6-3.1-2c-1.3-0.8-1.9-1.7-1.9-2.6c0-0.6,0.2-1.1,0.6-1.5
						c0.4-0.5,0.9-0.7,1.5-0.7c0.9,0,1.9,0.7,3.1,2l0,0c0,0,0.7,0.8,0.7,0.8c0.3,0.4,0.5,0.4,0.5,0.4c0,0,0,0,0,0
						c0,0,0.1-0.1,0.1-0.7c0-0.8-0.2-1.7-0.7-2.7c-0.6-1.2-0.9-1.3-0.9-1.3c-0.2,0-0.4,0.1-0.6,0.2c-0.4,0.2-0.8,0.3-1.1,0.3
						c-0.2,0-0.5,0-1.5-0.3c-0.6-0.2-1.2-0.2-1.8-0.2c-1.5,0-2.7,0.5-3.6,1.4c-0.9,0.9-1.4,2.1-1.4,3.6c0,1.3,0.5,2.4,1.5,3.3
						c0.2,0.2,0.9,0.7,2.9,2.1c1.3,0.8,1.9,1.6,1.9,2.5c0,0.6-0.2,1.2-0.7,1.6c-0.4,0.4-1,0.6-1.6,0.6c-1,0-2-0.7-3.1-2
						c-0.9-1.1-1.3-1.5-1.5-1.6c0,0.1-0.1,0.3-0.1,0.7c0,0.4,0.1,0.9,0.2,1.4c0,0,0.1,0.3,0.2,0.6c0.1,0.1,0.2,0.5,0.2,0.5
						c0.3,0.6,0.7,1.4,1.3,1.4c0.6,0,1.5,0.1,2.8,0.2c1.2,0.1,2.1,0.2,2.7,0.2c1.4,0,2.5-0.4,3.4-1.3c0.9-0.8,1.4-1.9,1.4-3.3
						C165.7,29.3,165.2,28.1,164.1,27.1z"/>
				</g>
			</g>
		</g>
	</mask>
	<g class="st25">
		<path class="st26" d="M50.4,33.2c0,0-0.1-0.1-0.3-0.2l0,0c-0.8-0.3-1.1-0.4-1.2-0.5c-0.2-0.2-0.6-0.6-0.6-5.9c0,0,0-6.5,0-7.4
			c-1.9,0.1-3.2,0.3-3.7,0.4l-0.1,0l-0.1,0c-1.4-0.4-2.6-0.6-3.7-0.6c-2.3,0-4.3,0.7-5.7,2c-1.6,1.4-2.4,3.5-2.4,6.1
			c0,0.9,0.1,1.7,0.3,2.5l0.1,0.2l-0.2,0.2c-0.9,1.2-2.5,2.3-3.3,2.8c-1.1,0.7-2.3,1.1-3.5,1.1c-1.8,0-3.3-1-4.6-3.1
			c-1.2-2-1.8-4.4-1.8-7.2c0-3,0.4-5.4,1.2-7.3c1-2.3,2.6-3.4,4.7-3.4c1.5,0,2.8,0.4,3.8,1.1c0.7,0.5,1.1,1,1.4,1.6l0.3,0.6
			l-0.6,0.1c-0.5,0.1-0.8,0.3-1.1,0.7c-0.3,0.4-0.4,0.9-0.4,1.4c0,0.8,0.4,1.4,1.2,1.8c0.3,0.1,0.6,0.2,1,0.2c0.7,0,1.3-0.3,1.8-0.8
			c0.5-0.6,0.8-1.2,0.8-2.1c0-0.9-0.3-1.8-1-2.6c-1.6-2.2-4.2-3.2-7.6-3.2c-2.9,0-5.4,1.1-7.5,3.2c-2.2,2.3-3.3,5.3-3.3,9
			c0,3.4,1.1,6.3,3.2,8.5c2,2.1,4.4,3.1,7.1,3.1c3.6,0,6.3-1.2,8.3-3.8l0.5-0.6l0.4,0.7c0.4,0.6,0.8,1.2,1.4,1.7
			c1.5,1.3,3.4,2,5.7,2c1.2,0,2.2-0.3,3.2-0.9l0.5-0.3l0.2,0.5c0.2,0.6,0.5,0.6,0.6,0.6c0.8,0,1.9-0.3,3.3-1
			C49.9,33.7,50.3,33.4,50.4,33.2z M43,31.9c-0.7,1.6-1.7,1.9-2.5,1.9c-2.2,0-3.3-2.3-3.3-6.8c0-4.5,1.1-6.8,3.3-6.8
			c2.2,0,3.2,2.3,3.2,6.8C43.8,29.2,43.5,30.8,43,31.9z"/>
		<path class="st27" d="M93.3,33.2c0,0-0.1-0.1-0.4-0.2c-1-0.3-1.2-0.4-1.4-0.5c-0.3-0.3-0.5-0.8-0.5-2.9c0-0.6,0.1-1.5,0.2-2.6
			c0.1-1.1,0.2-1.9,0.2-2.5c0-1.7-0.4-3.1-1.1-4.1c-0.8-1.2-1.8-1.7-3.3-1.7c-1.1,0-2,0.3-2.7,1c-0.5,0.4-1.2,1.3-2.2,2.6l-0.6,0.8
			c0,0-0.4-1.3-0.4-1.3c-0.7-2.1-2-3.1-4-3.1c-0.9,0-1.7,0.3-2.5,0.8c-0.5,0.4-1,0.9-1.6,1.6c-0.7,1-0.8,1.1-1.2,1.1
			c-0.2,0-0.6-0.1-0.7-0.9c-0.1-0.6-0.1-0.7-0.1-0.7c-0.2-0.8-0.3-1-0.3-1c0,0,0,0,0,0l0,0c-0.2-0.3-0.4-0.5-0.7-0.6
			c-0.3-0.1-1.1,0-3.2,0.8c-0.7,0.2-1.2,0.5-1.6,0.7l-0.5,0.3l-0.2-0.5c-0.1-0.3-0.3-0.5-0.6-0.8c-0.6-0.5-1.2-0.7-2-0.7
			c-0.8,0-1.6,0.3-2.3,0.8c-0.5,0.4-1,0.9-1.5,1.6c-0.7,1-0.8,1.1-1.1,1.1c-0.2,0-0.6-0.1-0.7-0.9c-0.1-0.6-0.1-0.7-0.1-0.7
			c0,0,0,0,0,0l0,0c-0.2-0.8-0.3-1-0.3-1c0,0,0,0,0,0l0,0c-0.2-0.3-0.4-0.5-0.7-0.6c-0.3-0.1-1.1,0-3.2,0.8c-2,0.8-2.3,1.2-2.3,1.3
			c0,0.1,0.2,0.2,0.4,0.2c0.7,0.2,1.1,0.4,1.3,0.8c0.2,0.5,0.4,1.4,0.4,2.7c0,0,0,9.4,0,10.3c0.8,0,3.9,0,4.7,0c0-0.9,0-6.6,0-6.6
			c0-1.9,0.3-3.5,1-4.7c0.7-1.4,1.6-2.1,2.7-2.1c0.5,0,0.9,0.3,1.1,0.8l0-0.1c0.4,0.9,1,1,1.4,1c0.6,0,1.1-0.2,1.5-0.6
			c0.3-0.3,0.5-0.6,0.6-1l0.1-0.6l0.5,0.2c0.6,0.2,0.8,0.4,1,0.7c0.1,0.3,0.2,0.8,0.2,2.6c0,0,0,9.4,0,10.3c0.8,0,3.9,0,4.7,0
			c0-0.9,0-8.6,0-8.6c0-1.2,0.3-2.4,1-3.5c0.7-1.2,1.5-1.8,2.4-1.8c0.9,0,2,0.5,2,3c0,0,0,9.9,0,10.8c0.8,0,3.9,0,4.6,0
			c0-0.9,0-8.7,0-8.7c0-1.2,0.3-2.4,0.9-3.4c0.7-1.1,1.5-1.7,2.4-1.7c1,0,2.2,0.6,2.2,3.3c0,0.6-0.1,1.6-0.2,2.9
			c-0.1,1.2-0.2,2.2-0.2,2.8c0,1.6,0.2,2.9,0.5,3.9c0.2,0.5,0.5,1.5,1.1,1.5c0.8,0,1.9-0.3,3.3-1C92.9,33.7,93.3,33.3,93.3,33.2z"/>
		<path class="st26" d="M106.8,30.5c-1,2-2.4,3.1-4.2,3.1c-1.5,0-2.7-0.5-3.4-1.4c-0.6-0.8-0.9-2-0.9-3.6l0-0.5l0.5,0
			c4.7,0.1,7.8-0.7,9.2-2.4l0,0c0.7-0.9,1-1.8,1-2.7c0-1.2-0.6-2.2-1.8-3c-1.3-0.9-3.1-1.4-5.3-1.4c-2.5,0-4.6,0.7-6.1,2.1
			c-1.6,1.5-2.5,3.6-2.5,6.2c0,2.7,0.9,4.9,2.5,6.4c1.5,1.4,3.4,2.1,5.7,2.1c3.1,0,5.4-1.5,7-4.5C107.9,30.8,107.2,30.6,106.8,30.5z
			 M98.1,26.3c0-4.2,1.1-6.3,3.4-6.3c0.9,0,1.6,0.4,2,1c0.4,0.6,0.7,1.4,0.7,2.2c0,0.7-0.2,1.4-0.5,1.9c-0.7,1.1-2.4,1.7-5.1,1.6
			l-0.5,0V26.3z"/>
		<path class="st27" d="M117.9,33.2c0,0-0.1-0.1-0.3-0.1l0,0c-0.9-0.3-1.1-0.4-1.3-0.5c-0.2-0.2-0.6-0.6-0.6-5.9c0,0,0-14.9,0-15.9
			c-0.8,0-3.9,0.2-4.7,0.2c0,0.9,0,19.1,0,19.1c0,1.6,0.2,2.9,0.5,3.9c0.2,0.5,0.5,1.5,1,1.5c0.8,0,1.9-0.3,3.3-1
			C117.6,33.7,117.9,33.3,117.9,33.2z"/>
		<path class="st27" d="M123.3,19.2c-0.1-0.3-0.4-0.5-0.7-0.6c-0.3-0.1-1.1,0-3.2,0.8c-2,0.8-2.3,1.2-2.3,1.3c0,0,0.1,0.1,0.5,0.2
			c0.8,0.2,1.2,0.5,1.3,0.8c0.1,0.3,0.2,0.8,0.2,2.6c0,0,0,9.6,0,10.5c0.8,0,3.9,0,4.6,0c0-0.9,0-10.9,0-10.9
			c-0.1-2.7-0.1-3.6-0.2-3.8C123.4,19.4,123.4,19.3,123.3,19.2L123.3,19.2z"/>
		<path class="st27" d="M124.1,13.8c0-0.4-0.2-0.8-0.7-1.2c-0.5-0.4-1.2-0.6-1.9-0.6c-0.8,0-1.4,0.2-2,0.6c-0.5,0.3-0.7,0.7-0.7,1.2
			c0,0.4,0.2,0.8,0.7,1.1c0.5,0.4,1.2,0.6,2,0.6c0.8,0,1.4-0.2,1.9-0.6C123.8,14.6,124.1,14.3,124.1,13.8z"/>
		<path class="st27" d="M134.5,33.3c0-0.1-0.2-0.2-0.3-0.2c-0.9-0.2-1.1-0.4-1.3-0.5c-0.2-0.2-0.6-0.6-0.6-6V21c0,0,2.6,0,3.3,0
			c0-0.5,0-1.4,0.1-2c-0.8,0-3.4,0-3.4,0s0-5.3,0-6.2c-0.7,0-2.4,0.1-2.9,0.1c-0.7,3.9-1.4,4.9-1.9,5.2c-0.5,0.4-1.2,0.6-2,0.8
			c-0.2,0-0.4,0.1-0.6,0.1c0,0.5,0,1.4-0.1,2c0.7,0,2.9,0,2.9,0v9c0,1.6,0.2,2.9,0.5,3.9c0.2,0.5,0.5,1.5,1,1.5c0.8,0,1.9-0.3,3.3-1
			C134.2,33.7,134.5,33.3,134.5,33.3z"/>
		<g>
			<path class="st26" d="M153.4,33.2c-0.2-0.1-0.5-0.1-0.5-0.1c-0.8-0.2-1-0.4-1.2-0.5c-0.2-0.2-0.6-0.6-0.6-5.9c0,0,0-6.5,0-7.4
				c-1.9,0.1-3.2,0.3-3.7,0.4l-0.1,0l-0.1,0c-1.4-0.4-2.6-0.6-3.7-0.6c-2.3,0-4.3,0.7-5.7,2c-1.6,1.4-2.4,3.5-2.4,6.1
				c0,2.7,0.8,4.8,2.4,6.3c1.5,1.3,3.4,2,5.7,2c1.2,0,2.2-0.3,3.2-0.9l0.5-0.3l0.2,0.5c0.2,0.6,0.5,0.6,0.6,0.6c0.8,0,1.9-0.3,3.3-1
				c0.9-0.4,1.5-0.7,1.8-1C153.1,33.4,153.2,33.3,153.4,33.2z M146,31.9c-0.7,1.6-1.7,1.9-2.5,1.9c-2.2,0-3.3-2.3-3.3-6.8
				c0-4.5,1.1-6.8,3.3-6.8c2.2,0,3.2,2.3,3.2,6.8C146.7,29.2,146.4,30.8,146,31.9z"/>
			<path class="st26" d="M163.9,27.1c-0.1-0.1-0.7-0.6-3.1-2c-1.3-0.8-1.9-1.7-1.9-2.6c0-0.6,0.2-1.1,0.6-1.5
				c0.4-0.5,0.9-0.7,1.5-0.7c0.9,0,1.9,0.7,3.1,2l0,0c0,0,0.7,0.8,0.7,0.8c0.3,0.4,0.5,0.4,0.5,0.4c0,0,0,0,0,0c0,0,0.1-0.1,0.1-0.7
				c0-0.8-0.2-1.7-0.7-2.7c-0.5-1.2-0.9-1.3-0.9-1.3c-0.2,0-0.4,0.1-0.6,0.2c-0.4,0.2-0.8,0.3-1.1,0.3c-0.2,0-0.5,0-1.5-0.3
				c-0.6-0.2-1.2-0.2-1.8-0.2c-1.5,0-2.7,0.5-3.6,1.4c-0.9,0.9-1.4,2.1-1.4,3.6c0,1.3,0.5,2.4,1.5,3.3c0.2,0.2,0.9,0.7,2.9,2.1
				c1.3,0.8,1.9,1.6,1.9,2.5c0,0.6-0.2,1.2-0.7,1.6c-0.4,0.4-1,0.6-1.6,0.6c-1,0-2-0.7-3.1-2c-0.9-1.1-1.3-1.5-1.5-1.6
				c0,0.1-0.1,0.3-0.1,0.7c0,0.4,0.1,0.9,0.2,1.4c0,0,0.1,0.3,0.2,0.6c0.1,0.1,0.2,0.5,0.2,0.5c0.3,0.6,0.7,1.4,1.3,1.4
				c0.6,0,1.5,0.1,2.8,0.2c1.2,0.1,2.1,0.2,2.7,0.2c1.4,0,2.5-0.4,3.4-1.3c0.9-0.8,1.4-1.9,1.4-3.3
				C165.4,29.3,164.9,28.1,163.9,27.1z"/>
		</g>
	</g>
	<g>
		<g>
			<g>
				<path class="st3" d="M176.3,43.1c0.6,0-0.3-0.1,0.4,0C176.6,43.1,176.5,43.2,176.3,43.1z"/>
				<path class="st3" d="M6.1,42.9c2-0.4,4.7-0.5,6.9-0.8c0.3,0-0.1,0.1,0.5,0.1c2.1-0.4,5.6-0.5,8.2-0.5l-0.2,0
					c0.5,0,1.1-0.2,1.6-0.2c0,0-0.2,0,0,0.1c0.1-0.1,1-0.1,1.2-0.2c0.2,0,0.2,0.1,0.5,0.1l0.3-0.1c0.8-0.2,2.1-0.1,3.2-0.3
					c-0.1,0-0.2,0-0.1,0.1c1.9-0.2,4.2-0.3,6.2-0.4c-0.1,0-0.2,0.1,0,0.1c0.1-0.1,0.7-0.1,1.3-0.2c0.3,0.1,1-0.1,1.6-0.1l-0.1,0
					c0.5-0.1,0.7,0,1.1-0.1l0.3,0.1c0.2-0.1,0.7,0,1.1,0l0,0c0.4,0,0.6,0,0.9,0l0,0c0.8-0.1,1.3,0,1.3-0.1c0.3,0.1-0.8,0.1-0.3,0.2
					c2.7-0.2,5.5-0.3,8.2-0.4c0.3,0,0.5,0,0.6,0.1c0.3,0,1,0,1.3-0.1c-0.1,0,0.2,0,0.3,0c0.5,0,0.5-0.1,1.1-0.1
					c-0.2,0-0.3,0.1-0.2,0.1c0.5-0.1,1.1-0.1,1.6-0.1c-0.1,0-0.2,0-0.2,0.1c0.6-0.1,1.1,0,1.6-0.1l-0.2,0.1c0.8,0,0.2-0.1,1-0.1
					c-0.2,0-0.1,0-0.1,0.1c0.7-0.1,1.8-0.1,2.5-0.2c0,0,0,0,0,0c0.7,0,1.5,0,2.3-0.1c0.3,0-0.1,0.1,0.7,0.1c0-0.1,1.3-0.1,0.9-0.2
					c0.7,0,1.7,0,2.2,0c-0.3,0,0.3,0.1-0.2,0.2l0.4,0.1c-0.1,0-0.4,0-0.3,0c0.3,0,1.1-0.1,1.3-0.1c0.5-0.1,1-0.2,1.8-0.2
					c-0.4,0.1,0.2,0.1,0,0.1l1.2-0.2c0.3,0,0.1,0.1,0.5,0.1c0,0,0.2-0.1,0.3-0.1c0.1,0,1.2,0,1.3,0.1c0.1,0-0.5,0-0.1,0.1
					c0.5,0,0.5,0,1-0.1l0,0c0.3,0,1-0.1,0.6-0.1c-0.2,0,0.1,0.1-0.3,0c0.2-0.1,0.8-0.1,1.3-0.1c-0.2,0-0.2,0-0.2,0.1
					c0.7-0.1,1.4-0.1,2.2-0.2c0-0.1-0.3,0.1-0.4,0.1c1,0.1,2-0.1,2.9,0c-0.1,0-0.1-0.1-0.1-0.1c0.5,0,0.5,0.1,0.8,0.1
					c0,0,0.4,0,0.7,0c0.2,0,0.1,0-0.2,0c0.4,0,2.2-0.1,3.2-0.1c0,0,0.6-0.1,0.9-0.1l-0.1,0.1c0.2,0,0.8,0,0.8,0.1
					c0.5-0.1-1.9,0.1-1.3,0c0.2,0.1,0.9-0.1,0.8,0c0.5,0,0.9-0.1,1.4,0c-0.1,0-0.4,0.1,0,0.1c0.7,0,0.2,0,0.7-0.1l0.3,0
					c0-0.1,0.6,0,0.4-0.1c0.1,0.1,1,0,0.9,0.1l-0.1,0.1c0.3,0,0.5-0.1,0.7-0.1c0,0,0.1,0,0.1,0c0-0.1,0.7,0,1-0.1
					c0.6,0,1.6,0,1.8,0.1c0.5,0,0.9-0.1,1.4-0.1c-0.1,0-0.3,0-0.3,0c0.3,0,0.4,0,0.7,0c-0.1,0,0.7,0.1,1,0.1c0.5,0,0.3-0.1,0.4-0.2
					c0.4,0.1,1.3-0.1,1.8,0c-0.2,0-0.7,0.1-0.3,0.1c0.4,0.1,0.9-0.1,1.5,0l-0.2-0.1c0.3,0.1,1-0.1,0.9,0.1c0.2,0,0.8,0,0.7-0.1
					c1.1,0.1,2.7,0,3.4,0.2c0.2,0,0.6,0,0.5-0.1c-0.3-0.1-0.4,0-0.5,0c0.1,0,0.2,0,0.2,0c0.4,0,0.6,0,0.3,0.1
					c0.8,0.1,0.8-0.2,1.8-0.1c0,0,0,0.1,0.3,0.1l0.6-0.1c0.6,0,0.4,0.1,0.4,0.2c0.3,0,0.8,0,0.9-0.1l0.4,0.1c-0.3-0.1,0.3,0,0.4-0.1
					l-0.2,0c0.1,0,0.5,0,0.7,0c0,0-0.5-0.1-0.7-0.1c0.2,0,0.4,0,0.7-0.1c-0.1,0.1,0.6,0.1,0.8,0.1c0.3,0,0.4-0.1,0.4-0.1
					c0,0,0.5,0,0.3,0.1c-0.1,0-0.2,0-0.4,0c0.2,0,0.2,0.1,0.6,0.1c0.3,0-0.1-0.1,0.5-0.1c-0.2,0-0.2,0-0.3,0.1l0.6,0l0-0.1
					c0.1,0,0,0,0.1,0c0.2-0.1,0.9,0,1-0.1c0.3,0,0.6,0.1,0.9,0.1l-0.1,0c0.3,0,0.8,0,1.1,0l0,0c0.2,0,0.6,0,0.9,0
					c0.5,0.1,0.2,0.3,0.7,0.2c0.5,0,0.7-0.1,0.6-0.2c0.8,0.1,1.8,0,2.6,0.1c0.1,0,0,0,0.3-0.1c1.2,0.1,2.6,0,3.6,0.1
					c-0.4,0,0,0.1,0,0.1c0.3-0.1,0.4,0.1,0.5,0c0-0.1,0-0.1-0.3-0.1c0.7,0,1.9,0,2.3,0.1c-0.2,0,0,0,0.1-0.1
					c-0.1,0.1,0.5,0.1,0.9,0.1l0.1-0.1l0.3,0.1c0.2,0,0.2-0.1,0.6-0.1c0,0,0,0,0.1,0.1c0.4,0,1-0.1,1.5,0l0.4,0.1
					c0.2,0,0.5,0,0.2-0.1c0.8,0.1,1.3,0.1,1.6,0.2c1.4-0.1,3.4-0.1,4.9,0l0,0c0.4,0.1,0.2-0.1,0.5,0c-0.1,0,0.3,0.1,0,0.1
					c0.6,0.1,0.8-0.1,1.2-0.1c0.1-0.1-0.3,0-0.2,0c0.1,0,0.8,0.1,0.9,0c0.2,0,0,0.1-0.1,0.1l0.4,0c0.5,0.1-1,0.1-0.6,0.3l0.3,0
					c0.3,0.1-0.9,0.1-0.1,0.1c0.4,0,0.7-0.1,0.4-0.2c0.8,0,0.4-0.2,1.2-0.2c0.2,0.1-0.7,0-0.5,0.1c0.4,0.1,0.8,0,1.1,0
					c-0.4,0-0.1-0.1,0.2-0.1c0.4,0.1-0.3,0.1,0.3,0.1c0.1,0,0.7-0.1,0.2-0.1c0.2-0.1,0.6,0.1,1,0c0.2,0.1-0.6,0.2,0,0.2
					c-0.1-0.1,0.8-0.1,0.5-0.2c0.3,0,0.3,0.1,0.1,0.1c0.4,0.1,0.9-0.1,1,0.1l0.1-0.1c0.1,0,0.3,0.1,0.5,0.1c0.3,0,1.1-0.1,1,0.1
					c0.1,0,0.9,0,0.6-0.1c-0.5-0.1-0.5,0-0.8-0.1c0.3,0.1,0.7,0,0.9,0l0,0c0.2,0,0.5,0,0.6,0c-0.1,0-0.1,0.1,0.1,0.1l0.2-0.1
					c0.7,0,0.1,0.1,0.8,0.1l-0.5,0c0.1,0,0.3,0.1,0.6,0.1c0.1-0.1,0.3-0.1,0.4-0.2c0.4,0,0.2,0.1,0.5,0l-0.5,0.1
					c-0.1,0,0.3,0.1,0.8,0.1c0.3,0,0.8-0.1,0.3-0.1c0.2,0,0.6,0.1,0.4,0.1c0.5,0-0.1-0.1,0.4-0.1c0.2,0.1,0.8,0.1,1.1,0.2l-0.5,0.1
					l0.3,0c-0.4,0.1,0.2,0.1,0,0.2c0.2,0,0.5,0,0.7,0c-0.6-0.2,0.7-0.2,0.6-0.3c0.9,0,0.5,0.4,1.5,0.2c-0.1,0,0.3-0.1-0.3-0.1
					c0.6,0,0.4-0.1,1,0c-0.5,0,0.5,0.2-0.2,0.2c0,0-0.4-0.1-0.5,0c0.2,0.1-0.1,0.1,0.5,0.2c0.3,0,0.8,0,0.8,0c0-0.1-0.5,0-0.3-0.1
					c0.7,0,0.8,0.1,1.1,0c-0.4,0-0.5-0.1-0.5-0.2l0.5,0l-0.1,0c0.8,0.1,0.2-0.1,1,0l0.4,0.1c-0.2,0.1-1.1-0.1-1,0c0.5,0,0.7,0,1.2,0
					c-0.1,0-0.2,0-0.4,0c0.2,0,0.4,0.2,1.1,0.2c0.4,0,0.1,0,0.1-0.1c0.8,0,1.1,0,1.6,0c-0.1,0.1,0.9,0.1,0.3,0.1
					c-0.3-0.1-1.4-0.1-1.7-0.1c0.3,0.1-0.6-0.1-0.8,0.1c0.7,0,0.6,0.2,0.7,0.3c0.2,0,0.4,0,0.5,0c0.1-0.1-0.2-0.1-0.2-0.2
					c0.7,0.1,1.4,0.1,1.8,0c0.2,0.1,0.2,0.1-0.1,0.1c0.9,0,1.8,0.1,2.6,0.2c-0.5-0.2,0.9,0,0.6-0.1c-0.4-0.1-0.8-0.2-0.6-0.2
					c0.3,0,0,0.1,0.1,0.1c0.4,0,0.5,0.1,0.9,0.1c-0.8,0-0.2,0.1-0.3,0.2c0.6,0,0,0.1,0.5,0.1c0.6,0,1.3,0,1.9,0
					c0.8,0.2,2,0.2,2.7,0.2c0.4,0.1,0.1,0.2,0.5,0.2c0.5,0-0.3-0.1,0.4,0l-0.1,0c0.2,0,1.3,0.2,1.5,0.1l-0.2,0.1c0.1,0,0.3,0,0.4,0
					c0,0,0.2,0.1-0.1,0.1c0.4,0.1,0.9,0.1,1.4,0.1l-0.3-0.1c0.8,0,1.3,0.1,2.1,0.2l0,0.1l0.5,0c-0.1,0.1,0.3,0.1,0.5,0.1l-1.2,0
					c-0.3-0.1,0.4,0,0.2-0.1c-0.2-0.1-0.9-0.1-1-0.1c0.3,0,0.3,0,0.5,0c0.1,0.1-0.3,0.1-0.6,0.1c0.1,0,0.3,0.1,0.4,0
					c-0.3,0-0.6,0-1,0c0.3,0-0.2-0.1,0-0.1c0,0.1-0.5,0.1-1.1,0c-0.4-0.1-1.1,0-1.8-0.1c0.3-0.1,0.6-0.1,1.1-0.1
					c-0.4-0.1-0.5,0-0.9-0.1c-0.2,0-0.4,0.1-0.9,0.1l0-0.1c-0.5,0-0.5,0.1-1.2,0c-1.1-0.1-2.2-0.2-3.1-0.3l0-0.1
					c-0.5,0.1-1.6-0.1-2.2,0c-1.1-0.1-2.3-0.1-2.9-0.2c-1.9-0.1-3.5-0.1-5.5-0.2l0.3-0.1c-0.4,0-0.2-0.1-0.6-0.1
					c0.4,0.1-0.5,0.1-0.7,0.1c-0.9-0.1-2-0.1-2.8-0.1l0-0.1c-0.8,0.1-1.7-0.1-2.7-0.1c-0.1,0-0.3-0.1-0.6-0.1
					c-0.5,0.1-0.8,0.1-1.6,0.1c-0.6,0-1.5-0.1-2-0.1c-2.1,0-4.3-0.1-6.5-0.1l-0.2-0.1c-2.1,0.1-4.8-0.1-6.6-0.1l0.2-0.1
					c-0.6-0.1-1.3,0-1.2,0.1c-0.6-0.1-1.4,0-1.8-0.1c-0.6,0-0.7,0-1.2,0c-1.2-0.1-1.6-0.1-2.7-0.1l0.3,0c0.1,0,0.1-0.1-0.1-0.1
					c-0.4,0-1.5-0.1-1.1,0.1c-1.2-0.1-2.8,0-3.9-0.1c0.1,0-0.2,0-0.3,0.1c-1,0-2.1-0.1-3-0.1c-0.2,0,0.3-0.1-0.2-0.1
					c-0.3,0,0,0.1-0.3,0.1c-1.7,0.1-3.4-0.1-4.9-0.1c-2.7,0.1-5.6,0-8.2,0l0,0c-0.9,0.1-2-0.1-2.7,0c-0.2,0-0.8,0-0.6-0.1
					c-0.7,0.1-1.9-0.1-2.9,0c0.1,0,0.1,0,0.3,0c-1-0.1-1.9,0-3,0c0.1,0,0.3,0,0.3-0.1c-0.4-0.1-1,0.1-1.2,0c-0.2,0-0.2,0.1,0,0.1
					c-2.3-0.1-4.8,0-7.3,0.1c-1.7-0.1-0.1-0.2-1.5-0.1c-0.1,0-0.1,0.1-0.1,0c-0.5,0-0.8-0.2-1.2-0.1c0.2,0.1-0.2,0.1-0.3,0.1
					c-1.1-0.1-1.3-0.1-2.1-0.1l0.1,0c-1,0.1-2.1,0.1-3,0.2c-5.4,0.1-10.7,0.2-16,0.4C55,40.7,49.9,41,44.5,41.1
					c-1.3-0.1-1.3-0.1-2.7,0c0.1,0,0.1,0,0,0c-0.1,0.1-1,0-1.1,0.1c-2,0.1-3.8,0.2-5.8,0.2c0.3,0,0.5-0.1,0.1-0.1l-0.4,0.1l-0.1,0
					c-0.3,0-0.5,0.1-0.3,0.1c-5.1,0.3-10.1,0.4-15.1,0.7c-1.2,0-2.9,0.2-4.1,0.3c-3.8,0.2-7.2,0.3-11.1,0.9
					C4,43.4,4.5,43.1,6.1,42.9z"/>
				<path class="st3" d="M175.5,43c-0.1-0.1-0.6-0.1-0.2-0.2C175.3,42.9,175.6,43,175.5,43z"/>
				<path class="st3" d="M163.7,41.5c0,0-0.2,0-0.2,0c0.1,0,0.3,0,0.4,0C163.8,41.4,163.8,41.5,163.7,41.5z"/>
				<path class="st3" d="M160.7,41.2c0,0,0.7,0,1.1,0L160.7,41.2z"/>
				<path class="st3" d="M157.9,40.9c-0.2-0.1-0.2-0.1,0.2,0C158.1,40.9,158,40.9,157.9,40.9z"/>
				<path class="st3" d="M157.7,41c-0.2,0-0.3,0-0.5-0.1C157.2,40.9,157.8,40.9,157.7,41z"/>
				<path class="st3" d="M151.6,40.5c-0.1,0-0.5,0-0.6,0C151.1,40.5,151.7,40.4,151.6,40.5z"/>
				<path class="st3" d="M148.7,40.4c-0.1,0-0.1,0-0.2,0C148.3,40.4,148.5,40.4,148.7,40.4L148.7,40.4z"/>
				<polygon class="st3" points="96.9,39.4 97.2,39.4 97.1,39.4 				"/>
				<path class="st3" d="M74.1,39.5c-0.3,0-0.2,0-0.3,0C74.1,39.4,73.8,39.5,74.1,39.5z"/>
				<polygon class="st3" points="61.9,39.9 62,39.9 61.9,40 				"/>
			</g>
		</g>
	</g>
	<g>
		<path class="st3" d="M33.2,55.3c-0.3,0.2-0.9,0.3-1.7,0.3c-1.9,0-3.3-1.2-3.3-3.3c0-2.1,1.4-3.5,3.5-3.5c0.8,0,1.3,0.2,1.6,0.3
			L33,49.8c-0.3-0.2-0.8-0.3-1.3-0.3c-1.6,0-2.6,1-2.6,2.7c0,1.6,0.9,2.7,2.5,2.7c0.5,0,1-0.1,1.4-0.3L33.2,55.3z"/>
		<path class="st3" d="M37.3,53.4l-0.7,2.1h-0.9l2.2-6.6h1l2.3,6.6h-0.9l-0.7-2.1H37.3z M39.5,52.7l-0.6-1.9
			c-0.1-0.4-0.2-0.8-0.3-1.2h0c-0.1,0.4-0.2,0.8-0.3,1.2l-0.6,1.9H39.5z"/>
		<path class="st3" d="M44.2,48.9h3.6v0.7h-2.7v2.2h2.5v0.7h-2.5v3h-0.9V48.9z"/>
		<path class="st3" d="M54.4,52.4h-2.6v2.4h2.9v0.7H51v-6.6h3.6v0.7h-2.7v2.1h2.6V52.4z"/>
		<path class="st3" d="M73.9,49c0.4-0.1,1-0.1,1.6-0.1c0.9,0,1.5,0.2,1.9,0.5c0.3,0.3,0.5,0.7,0.5,1.3c0,0.9-0.5,1.5-1.2,1.7v0
			c0.5,0.2,0.8,0.6,1,1.3c0.2,0.9,0.4,1.6,0.5,1.8h-0.9c-0.1-0.2-0.3-0.8-0.4-1.6c-0.2-0.9-0.5-1.3-1.3-1.3h-0.8v2.9h-0.9V49z
			 M74.8,52h0.9c0.9,0,1.5-0.5,1.5-1.3c0-0.9-0.6-1.2-1.5-1.2c-0.4,0-0.7,0-0.8,0.1V52z"/>
		<path class="st3" d="M84.6,52.4H82v2.4h2.9v0.7h-3.7v-6.6h3.6v0.7H82v2.1h2.6V52.4z"/>
		<path class="st3" d="M87.8,54.5c0.4,0.2,0.9,0.4,1.5,0.4c0.9,0,1.4-0.5,1.4-1.1c0-0.6-0.4-1-1.2-1.3c-1.1-0.4-1.7-0.9-1.7-1.9
			c0-1,0.9-1.8,2.1-1.8c0.7,0,1.2,0.2,1.5,0.3l-0.2,0.7c-0.2-0.1-0.7-0.3-1.3-0.3c-0.9,0-1.2,0.5-1.2,1c0,0.6,0.4,0.9,1.3,1.3
			c1.1,0.4,1.7,1,1.7,1.9c0,1-0.8,1.9-2.3,1.9c-0.6,0-1.3-0.2-1.7-0.4L87.8,54.5z"/>
		<path class="st3" d="M96,49.6h-2v-0.7h4.9v0.7h-2v5.9H96V49.6z"/>
		<path class="st3" d="M101.9,53.4l-0.7,2.1h-0.9l2.2-6.6h1l2.3,6.6H105l-0.7-2.1H101.9z M104.1,52.7l-0.6-1.9
			c-0.1-0.4-0.2-0.8-0.3-1.2h0c-0.1,0.4-0.2,0.8-0.3,1.2l-0.6,1.9H104.1z"/>
		<path class="st3" d="M109.4,48.9v3.9c0,1.5,0.7,2.1,1.5,2.1c1,0,1.6-0.6,1.6-2.1v-3.9h0.9v3.9c0,2-1.1,2.9-2.5,2.9
			c-1.4,0-2.4-0.8-2.4-2.8v-3.9H109.4z"/>
		<path class="st3" d="M116.9,49c0.4-0.1,1-0.1,1.6-0.1c0.9,0,1.5,0.2,1.9,0.5c0.3,0.3,0.5,0.7,0.5,1.3c0,0.9-0.5,1.5-1.2,1.7v0
			c0.5,0.2,0.8,0.6,1,1.3c0.2,0.9,0.4,1.6,0.5,1.8h-0.9c-0.1-0.2-0.3-0.8-0.4-1.6c-0.2-0.9-0.5-1.3-1.3-1.3h-0.8v2.9h-0.9V49z
			 M117.7,52h0.9c0.9,0,1.5-0.5,1.5-1.3c0-0.9-0.6-1.2-1.5-1.2c-0.4,0-0.7,0-0.8,0.1V52z"/>
		<path class="st3" d="M125.2,53.4l-0.7,2.1h-0.9l2.2-6.6h1l2.3,6.6h-0.9l-0.7-2.1H125.2z M127.4,52.7l-0.6-1.9
			c-0.1-0.4-0.2-0.8-0.3-1.2h0c-0.1,0.4-0.2,0.8-0.3,1.2l-0.6,1.9H127.4z"/>
		<path class="st3" d="M132.1,55.5v-6.6h0.9l2.1,3.3c0.5,0.8,0.9,1.5,1.2,2.1l0,0c-0.1-0.9-0.1-1.7-0.1-2.7v-2.8h0.8v6.6h-0.9
			l-2.1-3.4c-0.5-0.7-0.9-1.5-1.2-2.2l0,0c0,0.8,0.1,1.6,0.1,2.7v2.8H132.1z"/>
		<path class="st3" d="M141.8,49.6h-2v-0.7h4.9v0.7h-2v5.9h-0.9V49.6z"/>
		<path class="st3" d="M150.8,52.4h-2.6v2.4h2.9v0.7h-3.7v-6.6h3.6v0.7h-2.7v2.1h2.6V52.4z"/>
	</g>
	<g>
		<path class="st3" d="M69.1,51.7c-0.2-0.6-0.9-0.9-1.6-0.8c0,0,0,0,0,0h-7c-0.1,0.3-0.1,0.6-0.1,0.9l0,0c0,1.6,1.1,3,2.5,3.5
			c0,0-0.1,0.1-0.1,0.2c0,0.1,0.1,0.2,0.2,0.2h1.9c0.1,0,0.2-0.1,0.2-0.2c0-0.1,0-0.1-0.1-0.2c0.7-0.2,1.3-0.6,1.7-1.1
			c0.4,0,0.8,0,1.2-0.2C68.9,53.5,69.4,52.5,69.1,51.7z M67.6,53.4c-0.2,0.1-0.4,0.1-0.6,0.2c0.3-0.5,0.5-1.1,0.5-1.8l0,0
			c0-0.1,0-0.2,0-0.4c0.5,0,0.9,0.2,1.1,0.5c0,0.1,0.1,0.2,0.1,0.3C68.6,52.7,68.2,53.2,67.6,53.4z"/>
		<path class="st3" d="M64.8,46.7c-0.4,0.3-0.9,0.8-1.1,1.2c-0.2,0.5,0.2,0.8,0.5,1.2c0.3,0.5,0.1,1.1-0.3,1.5
			c0.1-0.2,0.4-0.4,0.6-0.6c0.5-0.5,0.6-1.1,0.1-1.7c-0.2-0.3-0.4-0.5-0.3-0.9c0-0.1,0.1-0.2,0.2-0.3c0.2-0.3-0.6,0.5-0.2,0.2
			C64.4,47.1,64.5,46.8,64.8,46.7L64.8,46.7z"/>
		<path class="st3" d="M66.5,47.7c-0.3,0.2-0.7,0.6-0.8,0.9c-0.2,0.4,0.2,0.6,0.3,0.9c0.2,0.4,0.1,0.8-0.2,1.1
			c0.1-0.1,0.3-0.3,0.4-0.4c0.4-0.4,0.4-0.8,0.1-1.3c-0.2-0.2-0.3-0.3-0.2-0.6c0-0.1,0.1-0.2,0.1-0.2c0.2-0.2-0.4,0.3-0.2,0.2
			C66.2,48.1,66.3,47.9,66.5,47.7L66.5,47.7z"/>
		<path class="st3" d="M62.7,47.7c-0.3,0.2-0.7,0.6-0.8,0.9c-0.2,0.4,0.2,0.6,0.3,0.9c0.2,0.4,0.1,0.8-0.2,1.1
			c0.1-0.1,0.3-0.3,0.4-0.4c0.4-0.4,0.4-0.8,0.1-1.3c-0.2-0.2-0.3-0.3-0.2-0.6c0-0.1,0.1-0.2,0.1-0.2c0.2-0.2-0.4,0.3-0.2,0.2
			C62.5,48.1,62.6,47.9,62.7,47.7L62.7,47.7z"/>
	</g>
</g>
</svg>
